<?xml version="1.0" encoding="utf-8"?>
<!-- Generator: Adobe Illustrator 19.0.0, SVG Export Plug-In . SVG Version: 6.00 Build 0)  -->
<svg width="79.70506px" height="62.30791px" viewBox="0 0 283.5 222.1" version="1.1" id="Layer_1" xmlns="http://www.w3.org/2000/svg" xmlns:xlink="http://www.w3.org/1999/xlink" x="0px" y="0px"
	 style="enable-background:new 0 0 283.5 222.1;" xml:space="preserve">
<style type="text/css">
	.st0{clip-path:url(#SVGID_1_);}
	.st1{clip-path:url(#SVGID_2_);enable-background:new    ;}
	.st2{clip-path:url(#SVGID_3_);}
	.st3{clip-path:url(#SVGID_4_);}
	.st4{clip-path:url(#SVGID_5_);fill:#FFFFFF;}
	.st5{clip-path:url(#SVGID_6_);}
	.st6{clip-path:url(#SVGID_7_);fill:#F3E305;}
	.st7{clip-path:url(#SVGID_8_);}
	.st8{clip-path:url(#SVGID_9_);fill:#E22726;}
	.st9{clip-path:url(#SVGID_10_);}
	.st10{clip-path:url(#SVGID_11_);fill:#1B181C;}
</style>
<g id="XMLID_110_">
	<g id="XMLID_78_">
		<defs>
			<polyline id="SVGID_23_" points="0,0.1 283.5,0.1 283.5,221.9 0,221.9 			"/>
		</defs>
		<clipPath id="SVGID_1_">
			<use xlink:href="#SVGID_23_"  style="overflow:visible;"/>
		</clipPath>
		<g id="XMLID_79_" class="st0">
			<defs>
				<rect id="SVGID_25_" x="-302.1" y="-40" width="1666.1" height="16750"/>
			</defs>
			<clipPath id="SVGID_2_">
				<use xlink:href="#SVGID_25_"  style="overflow:visible;"/>
			</clipPath>
			<g id="XMLID_80_" class="st1">
				<g id="XMLID_81_">
					<defs>
						<rect id="SVGID_27_" x="0" width="284.3" height="222.1"/>
					</defs>
					<clipPath id="SVGID_3_">
						<use xlink:href="#SVGID_27_"  style="overflow:visible;"/>
					</clipPath>
					<g id="XMLID_82_" class="st2">
						<defs>
							<path id="SVGID_29_" d="M81.2,12.2c1.5-1.6,4.8-4.8,11-4.6c3.9-1.8,8.3-1.1,9.9-0.1c0,0,2.8-0.1,4.6,0.8
								c11-3.7,22.8-5.7,35-5.7c12.2,0,24,2,35,5.7c1.8-0.9,4.6-0.8,4.6-0.8c1.6-1,6.1-1.7,9.9,0.1c6.2-0.2,9.5,3,11,4.6
								c0.9-2.4,2.3-4.4,5.8-5.6c1.2-6.4,9.7-9.3,21.5-3.4c5.3-4.8,13.1,0.3,15.6,7.2c3.9-1,10.1,2.6,9.7,14.2
								c4,0.2,5.5,4.3,4.4,11.1c2.4-0.5,13.9-2.6,22.2,7.8c4,5,1.7,11.4-2.5,14.5c-0.3,0.8-2,7.7-7.3,10.6c-0.3,3.5,5.8,11.1,8.2,16
								c6.5,14,3.3,37.7-20.8,41.8c1.1,1,3.5,4.3,4.3,7.1c1,3.6,0.3,7.1-1.6,10c-2,3.3-9.4,7.9-11.3,10.2c3.4,2,7.4,6.2,5.6,14
								l-6.9,30.6c-1.1,5-4.5,9.2-9.9,10.3c-2.8,0.6-5.7,0-7.4-0.5c-12-3.2-20.7-0.7-34,3.6c-6.9,2.2-14.5,4.7-23.4,6.6
								c-9.2,2-19.8,3.4-32.6,3.4c-12.9,0-23.5-1.4-32.6-3.4c-9-1.9-16.5-4.4-23.4-6.6c-13.3-4.3-22-6.7-34-3.6
								c-1.7,0.5-4.6,1-7.4,0.5c-5.5-1.1-8.8-5.3-9.9-10.3l-6.9-30.6c-1.8-7.8,2.2-12,5.6-14c-1.8-2.3-9.3-6.9-11.3-10.2
								c-1.8-3-2.6-6.4-1.6-10c0.8-2.8,3.3-6.1,4.3-7.1C0.5,122.4-2.7,98.7,3.8,84.7c2.3-5,8.5-12.5,8.2-16
								c-5.3-2.8-7.1-9.8-7.3-10.6C0.4,54.9-1.9,48.6,2,43.6c8.3-10.5,19.8-8.3,22.2-7.8c-1.1-6.7,0.4-10.8,4.4-11.1
								c-0.4-11.6,5.8-15.2,9.7-14.2c2.5-6.9,10.3-12,15.6-7.2c11.9-5.9,20.3-3,21.5,3.4C78.9,7.9,80.4,9.9,81.2,12.2"/>
						</defs>
						<clipPath id="SVGID_4_">
							<use xlink:href="#SVGID_29_"  style="overflow:visible;"/>
						</clipPath>
						<g id="XMLID_83_" class="st3">
							<defs>
								<rect id="SVGID_31_" x="0" width="284.3" height="222.1"/>
							</defs>
							<clipPath id="SVGID_5_">
								<use xlink:href="#SVGID_31_"  style="overflow:visible;"/>
							</clipPath>
							<rect id="XMLID_84_" x="-22.2" y="-22.2" class="st4" width="327.9" height="266.2"/>
						</g>
					</g>
				</g>
			</g>
		</g>
	</g>
	<g id="XMLID_73_">
		<defs>
			<path id="SVGID_33_" d="M111.5,205.7c-8.5-1.8-15.7-4.2-22.3-6.3c-12.9-4.2-24.2-7.6-39.1-4.2c-3,0.7-4.1,0.7-4.8-2.3l-6.2-27.6
				c-0.6-2.6,0.2-3.1,2.7-3.7c18.4-3.9,33.5-1.2,48.7,2.6c8,2,15.9,4.3,24.2,6.1c8.4,1.8,17.3,3.2,26.9,3.2c9.7,0,18.5-1.3,26.9-3.2
				c8.3-1.8,16.2-4.1,24.2-6.1c15.2-3.9,30.4-6.6,48.7-2.6c2.5,0.6,3.2,1.1,2.7,3.7l-6.2,27.6c-0.7,3.1-1.7,3.1-4.8,2.3
				c-14.9-3.5-26.2,0-39.1,4.2c-6.6,2.1-13.8,4.5-22.3,6.3c-8.5,1.8-18.3,3.1-30.2,3.1C129.8,208.8,120,207.5,111.5,205.7
				 M111.2,47.6l-0.8-0.5l0.2-0.9c0.5-2.4,0.2-4.6-3.5-4.7l-0.9,0l-2.8-8.9l0.8-0.6c2.6-1.8,2-4.1-1.5-5.3l-0.9-0.3v-0.9
				c0-1.5,0.9-2.3,1.5-2.9c0.2-0.1,0.3-0.3,0.5-0.4c0.2-0.1,0.3-0.3,0.5-0.5c0.3-0.3,0.6-0.7,0.9-1.3l0.2-0.4l0.4-0.2
				c11.1-4.4,23.3-6.7,36-6.7s24.8,2.4,36,6.7l0.4,0.2l0.2,0.4c0.3,0.5,0.6,0.9,0.9,1.3c0.2,0.2,0.3,0.3,0.5,0.5
				c0.2,0.2,0.3,0.3,0.5,0.4c0.6,0.6,1.5,1.4,1.5,2.9v0.9l-0.9,0.3c-3.5,1.2-4.1,3.5-1.5,5.3l0.8,0.6l-2.8,8.9l-0.9,0
				c-3.7,0.1-4.1,2.3-3.5,4.7l0.2,0.9l-0.8,0.5c-1.1,0.7-2.1,3.4-1.5,5.3l1,2.9l-2.8-1.3c-8.2-3.9-17.5-6.2-27.3-6.2
				c-9.8,0-19,2.2-27.3,6.2l-2.8,1.3l1-2.9C113.3,50.9,112.3,48.2,111.2,47.6"/>
		</defs>
		<clipPath id="SVGID_6_">
			<use xlink:href="#SVGID_33_"  style="overflow:visible;"/>
		</clipPath>
		<g id="XMLID_76_" class="st5">
			<defs>
				<rect id="SVGID_35_" x="-302.1" y="-41.3" width="1666.1" height="16750"/>
			</defs>
			<clipPath id="SVGID_7_">
				<use xlink:href="#SVGID_35_"  style="overflow:visible;"/>
			</clipPath>
			<rect id="XMLID_77_" x="16.8" y="-9.1" class="st6" width="249.9" height="240.2"/>
		</g>
	</g>
	<g id="XMLID_68_">
		<defs>
			<path id="SVGID_37_" d="M243.9,73.4c-0.1,0.1-0.2,0.2-0.3,0.3c-1,1.1-3,2.1-4.8,2.1l-1.5,0l0.1,1.5c0.6,6.3,4.4,14.8,8.2,19.2
				c3.9,4.5,5.9,9.3,5.7,13.7l-0.1,1.2l1.2,0.1c7.4,0.7,12.5-2.8,14.4-7.8c2.8-7.6-2.7-15.8-6.4-21.4c-4.9-7.3-4.1-15.7-3-20.9
				l0.2-0.9l-0.7-0.5c-1.5-1-2.3-2.7-2.3-4.6c0-2.1,0.5-4.4,2.7-6.6c2.2-2.2,4.7-2.5,8.1-2.5c1.7,0,6,1.9,7.2,3.7c0,0.1,0,0.1,0,0.2
				c0,0.1-0.1,0.2-0.4,0.4c-1.4,0.8-2.2,2-2.8,3.3c-0.5,1.1-0.8,2.4-1.3,3.6c-0.8,2.1-1.8,3.6-5.2,3.6h-1l-0.3,1
				c-0.5,1.7-0.7,3.5-0.8,5.3c-0.2,5.4,1.2,9.1,3.2,12.4c0.7,1.1,1.8,2.7,2.9,4.5c1.1,1.7,2.2,3.7,3.1,5.6
				c4.8,10.3,1.6,22.9-10.1,26.5c-1.9,0.6-6.1,1.2-10.5,0.4l-0.7-0.1l-0.5,0.6c-0.3,0.3-0.5,0.6-0.8,0.9c-0.4,0.4-1,0.9-1.6,1.4
				l-0.3,0.2l-0.1,0.4c-1,3.3-0.7,7.1,2.6,10.9c1.3,1.5,2.5,2.7,3.3,3.8c0.9,1.1,1.3,1.8,1.5,2.4c0.2,0.8,0.1,1.8-3.1,4.1
				c-8.1,5.8-11.4,10.8-13.2,14.3c-0.8,1.6-1.3,2.9-1.8,3.8c-0.4,0.6-0.6,0.7-1,0.7c-1.6-0.1-3.9-0.3-5.7-1.1l-1.1-0.4l-0.6,1
				c-1,1.7-5.2,2.1-6.9,1l-0.6-0.4l-0.6,0.2c-3.4,1.3-5.8,1.1-7.2,0.7c-0.7-0.2-1.2-0.5-1.5-0.7c-0.1-0.1-0.3-0.2-0.3-0.2
				c-6.1-0.5-6.6-6.7-3.9-10.1c0.6-0.7,2.4-3,6.3-3c2.6,0,15-7.7,15-11.8c0-0.9-0.6-1.6-1.1-2c-0.5-0.5-1.2-0.9-1.9-1.3
				c-1.4-0.8-3.3-1.8-5.1-3c-3.7-2.4-6.9-5.5-6.9-9.9c0-3.6,1-9.8,11.2-9.8h1.3v-1.3c0-7.3-7.4-14.6-11-17.3
				c-1.6-1.2-3.4-3.2-4.6-5.8l-0.2-0.5l-0.5-0.2c-3.8-1.3-7.1-5.6-10.3-10.5c-1.6-2.5-3-5-4.4-7.2c-1.4-2.2-2.7-4.3-4.1-5.7
				l-0.4-0.4l-0.6,0c-1.7,0-3.8-0.6-5.6-1.3l-0.7-0.3l-0.6,0.4c-3.2,2.2-6.8,0.8-6.9-1.1l-0.1-1.2h-1.2c-1.8,0-2.6-1.1-2.7-2.8
				c-0.1-1.9,0.8-3.7,1.7-4.2l0.8-0.5l-0.2-0.9c-0.5-2.3-1.4-9.1,18-0.6c0.5,0.2,1.1,0.5,1.7,0.8l2.5,1.2l-0.6-2.7
				c-0.8-3.4-2.3-6.6-5.5-9.3l-0.7-0.6l-0.8,0.4c-1.3,0.6-2.2,0.5-3.3,0c-0.6-0.3-1.3-0.7-2-1.3c-0.8-0.6-1.7-1.2-2.7-1.9
				c-2.7-1.9-2.1-4.2,1.4-5.4l0.9-0.3v-0.9c0-0.7-0.2-1.3-0.6-1.8c-0.2-0.2-0.3-0.4-0.5-0.6c-0.2-0.2-0.3-0.3-0.5-0.5
				c-0.2-0.1-0.3-0.3-0.5-0.5c-0.2-0.2-0.3-0.3-0.5-0.5c-0.3-0.4-0.6-0.8-0.9-1.4c-1-2,1.3-4.3,4.1-3.1l1.8-1c0,0,0.1-0.1,0.3-0.1
				c0.4-0.2,1.1-0.3,1.8-0.2c1.7,0,2.9,0.6,3.1,0.9l2.2,0c-0.1,0-0.1,0.1-0.2,0.2c0,0,0.1,0,0.3-0.1c0.3,0,0.7,0,1.3,0.2
				c1.1,0.5,2.8,1.8,4.1,5.1l0.4,1.1l1.1-0.3c1-0.3,2-0.5,2.9-0.6c0.6-0.1,2.9-0.2,3.4-0.3c0.6-0.1,1.2-0.4,1.6-0.7
				c0.4-0.3,0.7-0.7,1-0.9c0.1-0.1,0.3-0.3,0.4-0.4c0.1-0.1,0.2-0.2,0.4-0.4c0.2-0.2,0.5-0.4,0.7-0.5c0.1,0,0.8-0.2,2-0.3l1.5-0.2
				l-0.4-1.4c-0.1-0.4-0.2-0.9-0.3-1.4c0-0.2-0.1-0.4-0.1-0.6c0-0.1,0-0.1,0-0.2c0.1-0.2,0.3-0.5,1.3-0.8c1-0.3,2.1-0.5,2.8-0.7
				c0.4-0.1,0.9-0.3,1.3-0.4c0.4-0.2,0.9-0.4,1.3-0.7c0.9-0.7,1.4-1.8,0.8-3.1c0.3,0,0.6,0.1,1.1,0.2c0.9,0.2,1.9,0.4,2.7,0.8
				c0.4,0.1,0.7,0.3,0.9,0.4c0.1,0,0.1,0.1,0.1,0.1c0,0.1,0,0.2-0.1,0.4c-0.1,0.3-1.5,2.8-1.5,2.8s2.7-0.3,3-0.3
				c0.4,0,0.8,0,1.3,0.1c0.7,0.1,1.3,0.3,1.9,0.3c0.6,0.1,1.3,0.2,1.9,0c0.8-0.2,1.5-0.7,1.7-1.7c0.1-0.5,0.1-1,0-1.6
				c0.5,0.1,1.2,0.3,1.9,0.6c2.2,1,3,2.3,2.7,3.2c-0.3,0.7-1.3,1.4-1.3,1.4l-1.5,1c0,0,1.6,1.2,1.6,1.2c0.1,0.1,0.2,0.1,0.3,0.3
				c0.3,0.3,0.6,0.7,0.9,1.2c0.9,1.7,2.9,1.1,3.7,0.7c0.8-0.5,1.7-1.4,2-2.6c1,1.1,2,2.9,2.1,4.2c0.1,1.1-0.2,2.4-0.7,2.8
				c-0.2,0.1-1.2,0.3-1.4,0.3l-1.9,0.2c0,0,1,1.9,1.1,2.3c0.1,0.4,0.2,1.1,0.2,1.9c-0.1,2.2,2,2.6,3.1,2.4c0.9-0.1,1.8-0.6,2.6-1.4
				c0.1,0.2,0.2,0.3,0.3,0.6c0.6,1.4,0.9,3.3,0.5,4.7c-0.2,0.8-1.4,1.9-1.7,2c-0.1,0-0.2,0-0.5,0c-0.2,0-0.5,0-0.7-0.1
				c-0.3,0-0.6-0.1-0.8-0.1c-1.2,0.1-1.5,0.8-1.4,1.6c0,0.3,0.1,0.6,0.1,0.9c0,0.3,0,0.6-0.1,1.2c-0.3,4,3.1,4,5.4,2.8
				c0.1,0.6,0.2,1.3,0.1,2.1c0,1.1-0.2,2.2-0.6,3c-0.4,0.8-0.8,1.1-1.2,1.2c-0.9,0.2-1.3,0-1.4-0.1c-1.7-0.9-2.2-0.3-2.4,0.7
				c0,0.2-0.1,0.3-0.1,0.6c-0.1,0.2-0.2,0.5-0.3,0.9c-1,2-0.1,3.6,1.7,4c0.8,0.2,1.8,0.1,2.7-0.2c0,0.5-0.1,1.2-0.3,1.9
				c-0.6,2.1-1.7,3.4-3.2,3.2c0,0-0.1,0-0.2-0.1c-0.2-0.1-0.3-0.2-0.5-0.3c-0.2-0.2-0.5-0.3-0.7-0.5c-0.3-0.2-0.7-0.3-1.2-0.3
				c-0.4,0-1.2,0.3-1.5,1.3c-0.1,0.4-0.2,0.8-0.2,1.2c-0.1,0.9-0.1,2,0.1,3.1c0.2,1.1,0.4,2.3,1,3.3c0.5,1,1.5,2,3,2
				C243.7,73.3,243.8,73.4,243.9,73.4 M64.1,11.4c-0.5,1.2-0.1,2.3,0.9,3c0.4,0.3,0.9,0.5,1.3,0.7c0.4,0.2,0.8,0.3,1.3,0.4
				c0.7,0.2,1.8,0.4,2.8,0.7c1,0.3,1.2,0.6,1.3,0.8c0,0,0,0.1,0,0.2c0,0.2,0,0.4-0.1,0.6c-0.1,0.5-0.2,1-0.3,1.4l-0.4,1.4l1.5,0.2
				c1.2,0.2,1.9,0.3,2,0.3c0.3,0.1,0.5,0.3,0.7,0.5c0.1,0.1,0.3,0.2,0.4,0.4c0.1,0.1,0.3,0.3,0.4,0.4c0.3,0.3,0.6,0.6,1,0.9
				c0.4,0.3,0.9,0.6,1.6,0.7c0.5,0.1,2.8,0.2,3.4,0.3c0.9,0.1,1.9,0.3,2.9,0.6l1.1,0.3l0.4-1.1c1.4-3.3,3-4.7,4.1-5.1
				c0.6-0.2,1-0.3,1.3-0.2c0.1,0,0.2,0,0.3,0.1c0-0.1-0.1-0.1-0.2-0.2l2.2,0c0.2-0.3,1.4-0.9,3.1-0.9c0.8,0,1.4,0.1,1.8,0.2
				c0.2,0.1,0.3,0.2,0.3,0.2c4.7-0.3,6.9,2,5.9,4c-0.3,0.6-0.6,1-0.9,1.4c-0.2,0.2-0.3,0.4-0.5,0.5c-0.2,0.2-0.3,0.3-0.5,0.5
				c-0.2,0.2-0.4,0.3-0.5,0.5c-0.2,0.2-0.4,0.4-0.5,0.6c-0.3,0.5-0.6,1.1-0.6,1.8v0.9l0.9,0.3c3.5,1.3,4.1,3.6,1.4,5.4
				c-1,0.7-1.9,1.3-2.7,1.9c-0.8,0.6-1.4,1-2,1.3c-1.1,0.6-2,0.7-3.3,0l-0.8-0.4l-0.7,0.6c-3.2,2.8-4.7,5.9-5.5,9.3l-0.6,2.7
				l2.5-1.2c0.6-0.3,1.1-0.5,1.7-0.8c19.5-8.5,18.5-1.6,18,0.6l-0.2,0.9l0.8,0.5c0.9,0.5,1.7,2.3,1.7,4.2c-0.1,1.7-0.8,2.8-2.7,2.8
				H109l-0.1,1.2c-0.2,1.9-3.7,3.3-6.9,1.1l-0.6-0.4l-0.7,0.3c-1.8,0.7-3.9,1.3-5.6,1.3l-0.6,0l-0.4,0.4c-1.4,1.4-2.7,3.5-4.1,5.7
				c-1.4,2.2-2.8,4.8-4.4,7.2c-3.2,5-6.5,9.2-10.3,10.5l-0.5,0.2l-0.2,0.5c-1.2,2.6-3,4.6-4.6,5.8c-3.6,2.8-11,10.1-11,17.3v1.3h1.3
				c10.1,0,11.2,6.2,11.2,9.8c0,4.5-3.2,7.5-6.9,9.9c-1.9,1.2-3.7,2.2-5.1,3c-0.7,0.4-1.4,0.9-1.9,1.3c-0.5,0.4-1.1,1.1-1.1,2
				c0,4.1,12.4,11.8,15,11.8c3.8,0,5.7,2.2,6.3,3c2.7,3.4,2.2,9.6-2.9,9.6h-0.5l-0.5,0.5c-0.1,0.1-0.2,0.1-0.3,0.2
				c-0.3,0.2-0.8,0.5-1.5,0.7c-1.4,0.4-3.7,0.6-7.2-0.7l-0.6-0.2l-0.6,0.4c-1.7,1.1-5.9,0.8-6.9-1l-0.6-1l-1.1,0.4
				c-1.7,0.7-4.1,1-5.7,1.1c-0.4,0-0.7-0.1-1-0.7c-0.5-0.9-1-2.2-1.8-3.8c-1.8-3.5-5.1-8.5-13.2-14.3c-3.2-2.3-3.3-3.3-3.1-4.1
				c0.2-0.6,0.6-1.3,1.5-2.4c0.9-1.1,2-2.3,3.3-3.8c3.3-3.8,3.7-7.7,2.6-10.9l-0.1-0.4l-0.3-0.2c-0.6-0.5-1.1-1-1.6-1.4
				c-0.3-0.3-0.6-0.6-0.8-0.9l-0.5-0.6l-0.7,0.1c-4.4,0.8-8.6,0.2-10.5-0.4C11.5,112.7,8.3,100,13.1,89.8c0.9-1.9,2-3.8,3.1-5.6
				c1.1-1.8,2.2-3.4,2.9-4.5c2-3.3,3.4-7,3.2-12.4c-0.1-1.8-0.3-3.6-0.8-5.3l-0.3-1h-1c-3.3,0-4.4-1.5-5.2-3.6
				c-0.5-1.2-0.8-2.5-1.3-3.6c-0.5-1.2-1.3-2.5-2.8-3.3c-0.3-0.2-0.4-0.3-0.4-0.4c0-0.1,0-0.1,0-0.2c1.2-1.9,5.5-3.7,7.2-3.7
				c3.5,0,5.9,0.3,8.1,2.5c2.1,2.1,2.7,4.4,2.7,6.6c0,1.9-0.8,3.6-2.3,4.6l-0.7,0.5l0.2,0.9c1.1,5.3,1.9,13.6-3,20.9
				c-3.7,5.6-9.2,13.8-6.4,21.4c1.8,5,7,8.5,14.4,7.8l1.2-0.1L32,110c-0.2-4.4,1.8-9.2,5.7-13.7c3.8-4.4,7.6-12.9,8.2-19.2l0.1-1.5
				l-1.5,0c-1.8,0.1-3.8-1-4.8-2.1c-0.1-0.1-0.2-0.2-0.3-0.3c0.1,0,0.2,0,0.4,0c1.5,0,2.4-1,3-2c0.5-1,0.8-2.2,1-3.3
				C44,67,44,65.8,43.9,65c0-0.4-0.1-0.9-0.2-1.2c-0.3-1-1.1-1.3-1.5-1.3c-0.5,0-0.9,0.2-1.2,0.3c-0.2,0.1-0.5,0.3-0.7,0.5
				c-0.2,0.1-0.3,0.2-0.5,0.3c-0.1,0.1-0.2,0.1-0.2,0.1c-1.5,0.1-2.6-1.1-3.2-3.2c-0.2-0.7-0.3-1.4-0.3-1.9c0.9,0.3,1.9,0.4,2.7,0.2
				c1.8-0.4,2.7-1.9,1.7-4c-0.2-0.4-0.3-0.6-0.3-0.9c-0.1-0.2-0.1-0.4-0.1-0.6c-0.2-1-0.7-1.6-2.4-0.7c-0.1,0.1-0.5,0.2-1.4,0.1
				c-0.4-0.1-0.8-0.4-1.2-1.2c-0.4-0.8-0.6-1.9-0.6-3c0-0.8,0-1.5,0.1-2.1c2.2,1.2,5.7,1.2,5.4-2.8c0-0.5-0.1-0.9-0.1-1.2
				c0-0.3,0-0.5,0.1-0.9c0.1-0.8-0.2-1.5-1.4-1.6c-0.2,0-0.5,0-0.8,0.1C37.5,40,37.3,40,37,40c-0.2,0-0.4,0-0.5,0
				c-0.4-0.1-1.5-1.2-1.7-2c-0.4-1.4-0.1-3.3,0.5-4.7c0.1-0.2,0.2-0.4,0.3-0.6c0.7,0.8,1.7,1.2,2.6,1.4c1.1,0.2,3.2-0.2,3.1-2.4
				c0-0.9,0.1-1.5,0.2-1.9c0.1-0.3,1.1-2.3,1.1-2.3l-1.9-0.2c-0.2,0-1.2-0.2-1.4-0.3c-0.5-0.4-0.8-1.7-0.7-2.8
				c0.1-1.3,1.1-3.1,2.1-4.1c0.3,1.2,1.2,2.1,2,2.5c0.8,0.5,2.8,1.1,3.7-0.7c0.3-0.6,0.6-1,0.9-1.2c0.1-0.1,0.2-0.2,0.3-0.3
				c0-2.2-1-2.9-1.2-3.7c-0.3-0.9,0.5-2.2,2.7-3.2c0.7-0.3,1.4-0.5,1.9-0.6c-0.1,0.6-0.1,1.1,0,1.6c0.2,1,0.9,1.5,1.7,1.7
				c0.6,0.1,1.4,0.1,1.9,0c0.6-0.1,1.2-0.2,1.9-0.3c0.5-0.1,1-0.1,1.3-0.1c0.3,0,3,0.3,3,0.3s-1.3-2.4-1.5-2.8
				c-0.1-0.2-0.1-0.3-0.1-0.4c0,0,0,0,0.1,0c0.3-0.2,0.6-0.3,0.9-0.4c0.8-0.3,1.8-0.6,2.7-0.8C63.5,11.5,63.9,11.4,64.1,11.4"/>
		</defs>
		<clipPath id="SVGID_8_">
			<use xlink:href="#SVGID_37_"  style="overflow:visible;"/>
		</clipPath>
		<g id="XMLID_71_" class="st7">
			<defs>
				<rect id="SVGID_39_" x="-302.1" y="-39.1" width="1666.1" height="16750"/>
			</defs>
			<clipPath id="SVGID_9_">
				<use xlink:href="#SVGID_39_"  style="overflow:visible;"/>
			</clipPath>
			<rect id="XMLID_72_" x="-11.7" y="-10.8" class="st8" width="306.9" height="194.5"/>
		</g>
	</g>
	<g id="XMLID_2_">
		<defs>
			<path id="SVGID_41_" d="M16.1,56.1c0.9,2.4,1.5,3.1,6,3c0.8,2.5,1.3,5.5,1.3,7.3c0.2,5.7-1.2,9.6-3.3,13.1
				c-0.7,1.1-1.8,2.7-2.9,4.5c-1.1,1.7-2.2,3.6-3,5.4c-4.6,9.8-1.4,21.5,9.4,24.9c1.6,0.5,5.1,1,8.9,0.5c-0.6-1-1-2.1-1.2-3.2
				c-7.9,0.8-13.8-2.8-15.9-8.5c-1.6-4.2-0.8-8.5,0.8-12.3c1.5-3.8,3.8-7.3,5.7-10.2c4.6-6.9,4-15.1,2.4-22c1.5-0.8,3.1-1.4,3.1-4.2
				c0-2-0.4-4-2.3-5.7c-4.1-3.9-10.6-1.4-12.9,0.3c1.3,0.9,2,2.2,2.5,3.3C15.3,53.5,15.6,54.8,16.1,56.1z M69.7,80.9
				c0.8,0.8,1.9,1.3,3.4,1.3c3.4,0,6.8-3.2,10.4-8.8c1.8-2.6,3.4-5.5,4.9-8c1.5-2.5,3.1-5,4.7-6.7l0.8-0.9c3,0.4,7.6-1.7,7.6-1.7
				l1.2,0.8c1,0.7,2.4,0.9,3.5,0.8c0.9-0.1,1.2-0.6,1.3-1.3c0.2-1.4-1-2.4-1.8-2.8c-1.6-0.8-0.4-3.1,1.1-2.4c0,0,1.8,0.7,3,3.2
				c1.3,0.1,1.4-0.6,1.5-1.4c0.2-1.6-0.8-4.3-5-4.3c-1.7,0.1-1.9-2.5-0.2-2.6c0,0,1.8-0.1,3,0.4c0.2-1.2-0.3-1.8-0.8-2
				c-1.5-0.6-5.6-0.6-15.4,3.7c-2.2,1-6.8,3.8-11.3,5.4c1,1.2,2.5,1.8,4,0.6c2.4-1.9,1.9,8-1.8,8.6c-1.4,0.2-2.4-0.6-2.4-0.6
				s-0.2,1.2-0.5,1.9c-0.8,1.6-0.5,3.5,2.1,3.3c0,3.1-2.7,7.4-7.2,5.8c-3.2-1.1-1.9-5.9-5.4-5.3c-0.1,0-0.5,1.7-0.3,3.9
				c0.5,6.5,3.1,5,3.3,5.7C73.9,79,72,80.5,69.7,80.9z M72.5,84.8c-3.5-0.2-5.4-2-6.4-4.3c-1.9-0.7-3.4-2.4-3.7-5.5
				c-0.3-2.9,1.4-6.7-1.6-6.7c-0.5,0-1,2.3-1.3,3.4c-1.5,7,1.9,5.1,0.6,6.6c-2.2,2.5-9.6,2-8.8-5.3c0.2-2.1,2.3-6,0.1-6
				c-1.5,0-1.3,5.6-4,8c-0.2,7.4-4.9,17.1-8.6,21.3c-6.3,7.2-7.2,14.7-2.1,19.8c0.7,0.7,1.8,1.6,2.8,2.5c1.1,1,2.4,2.1,3.4,3.4
				c2.1,2.7,3.7,6.7,0.1,10.6c-0.9,0.9-1.6,1.8-2.3,2.6c-1.6,1.8-0.5,2.4,0.9,3.4c6,4.2,9.5,7.9,11.9,11.2c1.2,1.6,2,3.1,2.7,4.5
				c0.6,1.3,1.2,2.5,1.7,3.6c0.4,0.7,3.5,1.8,5.8,0c0.1-1.5-0.5-3.1-1.4-4.4c-1-1.5,1.2-3.1,2.3-1.6c1.2,1.7,2.2,4.4,1.9,6.6
				c2.5,0.9,4.6,0.8,6.3-0.2c0.3-2.6-0.4-4.4-1.3-5.6c-1.1-1.5,1.1-3.1,2.2-1.7c1.2,1.6,2,4,2,6.2c1.5-0.2,2-1.1,2.2-2.3
				c0.3-1.8-0.4-4-1.2-5c-0.5-0.6-2-2.4-5.1-2.4c-2.9,0-16.4-8-16.4-13.2c0-1.6,1.1-2.6,1.6-3.1c0.6-0.6,1.4-1.1,2.1-1.5
				c1.4-0.8,3.2-1.8,5.1-3c3.7-2.4,6.3-5,6.3-8.7c0-3.2-1-7.6-7.6-8.2c-1.4-0.1-6.2-0.6-9.3,1c-1.6,0.8-3.1-1.2-1.6-2.2
				c0,0,1.7-1.2,6-1.7c0-8,7.9-15.7,11.6-18.4C70.3,87.7,71.5,86.4,72.5,84.8z M39.5,122.2c0.1,2.8-0.9,5.8-3.5,8.8
				c-1.3,1.5-2.5,2.7-3.3,3.8c-1.6,2-1.7,2.3,1.4,4.6c8.3,6,11.7,11,13.6,14.8c1.2,2.5,1.6,3.9,2.1,3.9c1-0.1,2-0.2,3.2-0.5
				c0.6-0.1,1.1-0.3,1.5-0.5c-1.9-4.1-4.7-9.3-14.3-16c-5.3-3.7-2.7-6.1,1-10.1C44.1,127.7,42.1,124.7,39.5,122.2z M83.5,41.2H75
				v-6.6c0,0,6.8,0,8.8-0.2c0.5-0.1,1.3-0.1,2.3,0.1c0.1,0,0.5,0,0.5-0.2c0.2-1.2,0.1-3.8,0.1-3.8s1.5-1.5,1.5-4.1
				c-2.3-0.9-4.7-1.6-6.5-1.8c-0.7-0.1-2.9-0.2-3.4-0.3c-0.9-0.1-1.5-0.5-2-0.8c-0.4-0.3-1.6-1.9-2.3-2.1C69,20.2,63.5,20.8,62.2,21
				c-1.7,0.4-2.1,1.9-2.1,1.9c-0.9,0-3,0-3.8,0.2c-1,0.2-1.4,0.3-1.4,0.9c0,1.2,2.9,3,2.9,3s-0.6,3.5-1.7,6.5
				c-0.2,0.7-0.2,1.2,0.3,2.5c0.8,1.8,2.7,2.8,5.3,3.2c1.9,0.3,4.3,3.3,5.5,3.8c0.7,0.3,5.3,0.2,7,0.2c3.5-0.1,7.1-0.4,8.3-0.7
				C83,42.5,83.3,41.7,83.5,41.2z M76.2,45.6c-4.2,0.2-8.9,0.3-10.1-0.3c-2.4-1.3-3.7-3.3-4.9-3.6c-2.7-0.5-5.8-1.6-7.1-4.6
				c-1.5-3.5,0-4.3,1-8.9c-3.4-2.6-3.2-5-1.5-6.5c0.7-0.6,3-1,5.1-1c0.6-2.4,6.7-2.5,11.2-2.2c0.1-0.4,0.2-0.8,0.3-1.1
				c0.2-0.6,0.2-0.8-0.8-1c-2.1-0.4-3.3-0.8-4.8-1.6c-1.3-0.7-2-2-1.8-2.7c0.3-0.7-1.9,0-2.2,0.4c-0.4,0.7,1.5,3.5,1.5,3.5
				s-2.6-0.2-4.2-0.1c-2.3,0.1-3.7,0.7-5.3,0.5c-1.9-0.2-3-1.7-2.9-2.8c0.1-0.7-2.5,1.2-2.4,1.9c0.1,0.6,0.9,1.6,3.1,3
				c-3.7,2.2-2.8,4.8-6,4.9c-0.9,0-3.5-0.7-3.7-2c-0.2-0.8-1.9,2.2-0.9,3.8c0.5,0.8,1.1,0.7,3.8,0.9c-1.1,2.1-1.2,3.1-1.2,4.9
				c0,1.7-0.5,2.3-1.9,3.1c-0.9,0.6-3.1,0.9-4.4-0.4c-0.4-0.4-0.7,2.4-0.4,3.2c0.3,0.8,0.8,1.2,2.1,1.2c2-0.1,3.1-0.5,3.1-0.1
				c-0.1,1.1-0.1,2.8,0.1,5.6c0.2,3.1-3.2,4.5-5.5,3.3c-0.6-0.3,0,3.7,1.1,3.8c2.1,0.2,4-1.7,4.1-1.1c0.5,3.2,1.2,3.5,1.4,5.1
				c0.5,3.6-3.1,4.6-4.3,4c-0.9-0.4,0.3,3.5,2.1,2.8c0.6-0.3,1.5-1,2.3-1c1.3,0,2.1,0.5,2.7,2.2c0.3,0.9,0.4,2.8,0.1,4.7
				c-0.2,1.2-0.4,2.4-1.1,3.6c-0.4,0.7-1.1,1.4-1.8,1.6c-1.2,0.3,2,1.8,3.6,0.8c1.3-0.7,2.2-5.6,2.5-6.2c0.8-1.9,2.1-2.5,3.2-2.5
				c1.6,0,2.9,1,3.3,2.5c0.3,1,0.1,2.1-0.1,2.7c-0.1,0.7-0.8,3.1-0.9,3.5c-0.9,4.3,3.8,4.4,3.3,3.9c-0.7-0.8-0.6-3.3,0-6
				c0.1-0.6,0.7-2.8,1.2-3.7c0.8-1.3,1.9-1.7,2.6-1.7c3.7,0,4.3,2.9,4.3,4.6c0,0.7-0.2,3.7-0.2,4.3c0,5,6.4,3.7,5.3,3.2
				c-1.3-0.6-2-2.5-2.4-6.2c-0.3-3,0.5-6.1,0.8-6.2c2.6-0.8,5.2-0.9,6.8,2.3c0.4,0.8,0.8,2.2,1.3,2.6c1.1,0.9,3.2,0,3.7-1.4
				C78,68.4,77.9,65,79,62.8c0.5-1,0.9-2.4,1.2-4c0.4,0.4,2.6,2,3.7,1.7c0.8-0.3,1.7-3.8,0.8-3.3c-1.9,1-4.1-1.3-4.9-2.4
				c-0.4-0.6-1.4-1.8-1.5-4.2C78.2,49,78,47,76.2,45.6z M87.4,48c0.6-4.3,2.1-8.5,6.3-12.1l1.3-1.2l1.6,0.8c0.9,0.4,1.3,0.4,2.1,0
				c0.5-0.3,1.1-0.6,1.9-1.2c0.8-0.6,1.7-1.3,2.8-1.9c2-1.3,1.2-2.3-1-3.1l-1.9-0.7v-1.5c0-2.4,1.1-3.4,2-4.2c0.2-0.2,2-1.6,1.7-2.6
				c-0.3-1.2-2.8-0.8-2.8-0.8c-1.1,0.3-2,2-2.4,2.8c-0.7,1.7-3.3,0.6-2.5-1.1c0,0,0.7-1.6,1.7-2.7c-0.1-0.6-2.3-0.4-3,0.1
				c-0.6,0.8-1.1,2-1.3,2.7c-0.3,1.8-3,1.3-2.7-0.5c0,0,0.2-0.8,0.6-1.6c-1.3-0.1-2.8,1.5-4.1,4.4c1,0.3,1.9,0.7,2.8,1
				c0.5,2.4,0,4.8-1.4,6.5c0,2.5,0.2,6.1-2.7,5.7c-0.6-0.1-1.7-0.2-2.3-0.2c-2.1,0.3-5.2,0.2-6.7,0.2v1.9H86c0.9,0.9-0.6,5.6-3,6.1
				c-0.7,0.1-2,0.3-3.6,0.4c1.2,1.9,1.3,4.3,1.5,5.7C83.2,50.1,85.4,49,87.4,48z M196.1,48c2,1,4.1,2.2,6.5,3.1
				c0.1-1.4,0.3-3.8,1.5-5.7c-1.6-0.1-2.9-0.3-3.6-0.4c-2.4-0.4-3.9-5.1-3-6.1h8.6v-1.9c-1.5,0-4.6,0-6.7-0.2
				c-0.6-0.1-1.7,0.1-2.3,0.2c-2.8,0.4-2.7-3.2-2.7-5.7c-1.4-1.7-1.8-4.2-1.4-6.5c0.9-0.4,1.8-0.7,2.8-1c-1.3-2.9-2.8-4.5-4.1-4.4
				c0.4,0.8,0.6,1.6,0.6,1.6c0.3,1.8-2.4,2.3-2.7,0.5c-0.1-0.7-0.6-1.9-1.3-2.7c-0.7-0.5-3-0.7-3-0.1c1,1.1,1.7,2.7,1.7,2.7
				c0.7,1.7-1.8,2.7-2.5,1.1c-0.3-0.8-1.2-2.5-2.4-2.8c0,0-2.5-0.4-2.8,0.8c-0.3,1,1.6,2.5,1.7,2.6c1,0.8,2,1.9,2,4.2v1.5l-1.9,0.7
				c-2.2,0.7-3,1.7-1,3.1c1,0.7,1.9,1.4,2.8,1.9c0.8,0.6,1.4,1,1.9,1.2c0.8,0.4,1.2,0.4,2.1,0l1.6-0.8l1.3,1.2
				C194,39.5,195.5,43.7,196.1,48z M207.2,45.6c-1.8,1.4-1.9,3.5-2,5.1c-0.1,2.3-1.1,3.6-1.5,4.2c-0.8,1.1-3.1,3.4-4.9,2.4
				c-0.9-0.5,0,3,0.8,3.3c1.1,0.4,3.3-1.3,3.7-1.7c0.3,1.6,0.7,3,1.2,4c1.1,2.2,1,5.6-1.3,6.5c0.5,1.4,2.6,2.3,3.7,1.4
				c0.5-0.4,0.9-1.8,1.3-2.6c1.6-3.2,4.2-3.1,6.8-2.3c0.2,0.1,1.1,3.1,0.8,6.2c-0.4,3.7-1.2,5.7-2.4,6.2c-1.1,0.5,5.3,1.8,5.3-3.2
				c0-0.6-0.2-3.6-0.2-4.3c0-1.7,0.5-4.6,4.3-4.6c0.7,0,1.8,0.4,2.6,1.7c0.5,0.8,1,3,1.2,3.7c0.6,2.7,0.7,5.2,0,6
				c-0.5,0.5,4.2,0.4,3.3-3.9c-0.1-0.4-0.8-2.9-0.9-3.5c-0.1-0.6-0.3-1.7-0.1-2.7c0.4-1.5,1.7-2.5,3.3-2.5c1.1,0,2.4,0.6,3.2,2.5
				c0.3,0.7,1.2,5.5,2.5,6.2c1.6,0.9,4.8-0.5,3.6-0.8c-0.7-0.2-1.4-0.9-1.8-1.6c-0.6-1.2-0.9-2.4-1.1-3.6c-0.3-1.9-0.1-3.8,0.1-4.7
				c0.5-1.7,1.4-2.2,2.7-2.2c0.8,0,1.7,0.8,2.3,1c1.8,0.7,3-3.2,2.1-2.8c-1.3,0.5-4.8-0.4-4.3-4c0.2-1.5,0.9-1.9,1.4-5.1
				c0.1-0.5,2,1.3,4.1,1.1c1.1-0.1,1.7-4.1,1.1-3.8c-2.3,1.2-5.7-0.2-5.5-3.3c0.2-2.9,0.1-4.6,0.1-5.6c0-0.4,1.1,0,3.1,0.1
				c1.3,0,1.8-0.4,2.1-1.2c0.3-0.8,0-3.6-0.4-3.2c-1.4,1.3-3.5,1-4.4,0.4c-1.3-0.8-1.9-1.4-1.9-3.1c0-1.8-0.2-2.8-1.2-4.9
				c2.7-0.2,3.2-0.1,3.8-0.9c1-1.5-0.7-4.6-0.9-3.8c-0.3,1.4-2.8,2.1-3.7,2c-3.2-0.1-2.3-2.7-6-4.9c2.1-1.4,3-2.4,3.1-3
				c0.1-0.8-2.5-2.6-2.4-1.9c0.1,1.1-0.9,2.6-2.9,2.8c-1.6,0.2-3-0.4-5.3-0.5c-1.6-0.1-4.2,0.1-4.2,0.1s1.9-2.8,1.5-3.5
				c-0.2-0.4-2.4-1.2-2.2-0.4c0.2,0.7-0.5,2-1.8,2.7c-1.5,0.8-2.7,1.2-4.8,1.6c-1,0.2-1,0.4-0.8,1c0.1,0.3,0.2,0.7,0.3,1.1
				c4.5-0.3,10.6-0.2,11.2,2.2c2.1,0,4.4,0.4,5.1,1c1.7,1.4,1.8,3.9-1.5,6.5c0.9,4.7,2.5,5.4,1,8.9c-1.3,3-4.3,4.1-7.1,4.6
				c-1.2,0.2-2.5,2.3-4.9,3.6C216.2,45.8,211.4,45.8,207.2,45.6z M199.9,41.2c0.2,0.5,0.6,1.3,1,1.4c1.2,0.3,4.8,0.5,8.3,0.7
				c1.8,0.1,6.3,0.1,7-0.2c1.2-0.5,3.6-3.5,5.5-3.8c2.6-0.4,4.5-1.4,5.3-3.2c0.6-1.3,0.6-1.9,0.3-2.5c-1.1-3-1.7-6.5-1.7-6.5
				s3-1.9,2.9-3c0-0.7-0.4-0.7-1.4-0.9c-0.9-0.2-2.9-0.2-3.8-0.2c0,0-0.4-1.6-2.1-1.9c-1.3-0.3-6.8-0.8-11.8,0.3
				c-0.6,0.1-1.9,1.8-2.3,2.1c-0.5,0.4-1.2,0.7-2,0.8c-0.5,0.1-2.8,0.3-3.4,0.3c-1.8,0.2-4.2,0.9-6.5,1.8c0,2.6,1.5,4.1,1.5,4.1
				s-0.1,2.6,0.1,3.8c0,0.2,0.3,0.3,0.5,0.2c1-0.2,1.8-0.1,2.3-0.1c2,0.2,8.8,0.2,8.8,0.2v6.6H199.9z M244,122.2
				c-2.6,2.6-4.6,5.6-1.7,8.7c3.7,4,6.3,6.4,1,10.1c-9.7,6.7-12.4,12-14.3,16c0.4,0.2,0.9,0.3,1.5,0.5c1.2,0.3,2.3,0.4,3.2,0.5
				c0.5,0,0.8-1.4,2.1-3.9c1.9-3.7,5.3-8.8,13.6-14.8c3.1-2.2,2.9-2.6,1.4-4.6c-0.9-1.1-2-2.3-3.3-3.8
				C244.9,128,243.9,125,244,122.2z M211,84.8c1,1.6,2.2,2.8,3.3,3.6c3.6,2.8,11.5,10.4,11.6,18.4c4.3,0.4,6,1.7,6,1.7
				c1.5,1.1,0,3.1-1.6,2.2c-3.1-1.6-7.9-1.1-9.3-1c-6.6,0.6-7.6,5-7.6,8.2c0,3.7,2.6,6.4,6.3,8.7c1.9,1.2,3.7,2.2,5.1,3
				c0.7,0.4,1.5,0.9,2.1,1.5c0.5,0.5,1.6,1.5,1.6,3.1c0,5.3-13.5,13.2-16.4,13.2c-3.2,0-4.6,1.8-5.1,2.4c-0.8,1-1.5,3.2-1.2,5
				c0.2,1.1,0.7,2.1,2.2,2.3c0-2.2,0.7-4.6,2-6.2c1.1-1.5,3.3,0.2,2.2,1.7c-0.9,1.1-1.6,3-1.3,5.6c1.7,1,3.8,1.1,6.3,0.2
				c-0.3-2.1,0.7-4.9,1.9-6.6c1-1.5,3.3,0.1,2.3,1.6c-0.9,1.2-1.5,2.9-1.4,4.4c2.2,1.8,5.4,0.7,5.8,0c0.6-1.1,1.1-2.3,1.7-3.6
				c0.7-1.4,1.6-2.9,2.7-4.5c2.4-3.3,5.9-7,11.9-11.2c1.4-1,2.5-1.6,0.9-3.4c-0.7-0.8-1.5-1.6-2.3-2.6c-3.6-3.9-2-8,0.1-10.6
				c1-1.3,2.3-2.5,3.4-3.4c1-0.9,2.1-1.7,2.8-2.5c5.1-5,4.2-12.5-2.1-19.8c-3.7-4.2-8.4-13.9-8.6-21.3c-2.7-2.3-2.5-8-4-8
				c-2.1,0-0.1,3.9,0.1,6c0.8,7.3-6.6,7.8-8.8,5.3c-1.3-1.5,2.1,0.3,0.6-6.6c-0.2-1.1-0.8-3.4-1.3-3.4c-3,0-1.3,3.8-1.6,6.7
				c-0.3,3.1-1.9,4.8-3.7,5.5C216.4,82.9,214.5,84.7,211,84.8z M213.8,80.9c-2.3-0.4-4.2-1.8-3.9-3.4c0.1-0.7,2.7,0.8,3.3-5.7
				c0.2-2.2-0.2-3.9-0.3-3.9c-3.5-0.6-2.2,4.2-5.4,5.3c-4.5,1.6-7.2-2.7-7.2-5.8c2.6,0.1,2.9-1.8,2.1-3.3c-0.3-0.7-0.5-1.9-0.5-1.9
				s-1.1,0.8-2.4,0.6c-3.7-0.5-4.2-10.5-1.8-8.6c1.5,1.2,3,0.5,4-0.6c-4.4-1.7-9.1-4.5-11.3-5.4c-9.8-4.3-13.9-4.3-15.4-3.7
				c-0.5,0.2-1,0.8-0.8,2c1.2-0.5,3-0.4,3-0.4c1.7,0.1,1.6,2.7-0.2,2.6c-4.2,0-5.1,2.8-5,4.3c0.1,0.8,0.2,1.5,1.5,1.4
				c1.2-2.4,3-3.2,3-3.2c1.6-0.8,2.7,1.6,1.1,2.4c-0.8,0.4-2,1.4-1.8,2.8c0.1,0.6,0.4,1.1,1.3,1.3c1.1,0.2,2.5-0.1,3.5-0.8l1.2-0.8
				c0,0,4.6,2.1,7.6,1.7l0.8,0.9c1.6,1.7,3.2,4.2,4.7,6.7c1.5,2.5,3.1,5.3,4.9,8c3.7,5.5,7.1,8.8,10.4,8.8
				C211.9,82.1,213,81.6,213.8,80.9z M267.4,56.1c0.5-1.2,0.8-2.5,1.3-3.7c0.5-1.1,1.2-2.4,2.5-3.3c-2.3-1.7-8.8-4.2-12.9-0.3
				c-1.8,1.7-2.3,3.7-2.3,5.7c0,2.8,1.6,3.4,3.1,4.2c-1.6,6.9-2.2,15,2.4,22c1.9,2.9,4.2,6.4,5.7,10.2c1.5,3.8,2.3,8.1,0.8,12.3
				c-2.1,5.7-7.9,9.4-15.9,8.5c-0.3,1.1-0.7,2.2-1.2,3.2c3.8,0.5,7.3,0,8.9-0.5c10.8-3.4,13.9-15.1,9.4-24.9c-0.9-1.8-2-3.7-3-5.4
				c-1.1-1.8-2.2-3.4-2.9-4.5c-2.1-3.5-3.6-7.4-3.3-13.1c0.1-1.9,0.5-4.8,1.3-7.3C265.8,59.2,266.4,58.5,267.4,56.1z M141.7,208.8
				c11.8,0,21.5-1.3,29.9-3.1c8.5-1.8,15.6-4.2,22.2-6.3c12.9-4.2,24.6-7.8,39.8-4.2c2.7,0.7,2.7,0.7,3.2-1.3l6.2-27.6
				c0.4-1.6,0.4-1.6-1.7-2.1c-18.1-3.9-33-1.2-48.1,2.6c-8,2-15.9,4.3-24.2,6.2c-8.5,1.9-17.5,3.2-27.2,3.2
				c-9.8,0-18.7-1.3-27.2-3.2c-8.3-1.8-16.2-4.1-24.2-6.2c-15.2-3.8-30.1-6.5-48.1-2.6c-2,0.5-2,0.5-1.7,2.1l6.2,27.6
				c0.4,2,0.5,2,3.2,1.3c15.3-3.6,26.9,0,39.8,4.2c6.6,2.1,13.7,4.5,22.2,6.3C120.2,207.5,129.9,208.8,141.7,208.8z M110.2,168
				c-19.5-11-32.7-31.8-32.7-55.7c0-21.4,10.5-40.3,26.7-51.9c-1-0.2-2.1-0.6-3-1.2c-1.8,0.7-4.1,1.4-6,1.4
				c-4.9,5.1-10.7,20.6-19,23.7c-1.3,2.8-3.2,5-5,6.4c-3.6,2.8-10.5,9.7-10.5,16.3c11.2,0,12.5,7.1,12.5,11.1
				c0,10.4-15.1,13.6-15.1,16.3c0,3,11.4,10.5,13.7,10.5c4.5,0,6.6,2.6,7.3,3.5c2.3,2.9,3.2,10.2-2.1,11.5
				C88.2,161.8,98.9,165.2,110.2,168z M206,112.3c0,23.9-13.2,44.7-32.7,55.7c11.3-2.7,22-6.1,33.3-8.1c-5.3-1.3-4.4-8.6-2.1-11.5
				c0.7-0.9,2.9-3.5,7.3-3.5c2.3,0,13.7-7.5,13.7-10.5c0-2.7-15.1-5.9-15.1-16.3c0-3.9,1.3-11.1,12.5-11.1c0-6.6-6.9-13.5-10.5-16.3
				c-1.8-1.4-3.7-3.6-5-6.4c-8.4-3.1-14.1-18.6-19-23.7c-1.9,0-4.2-0.7-6-1.4c-0.9,0.6-1.9,1-3,1.2C195.5,72,206,90.9,206,112.3z
				 M83.4,112.3c0,32,26.1,58,58.3,58s58.3-26,58.3-58c0-32-26.1-58-58.3-58S83.4,80.2,83.4,112.3z M182,36.8l-1.6,5.1
				c2.8,0.6,6.4,1.7,11.1,3.8c0.6,0.2,1.1,0.5,1.7,0.8c-0.7-3.2-2.1-6.1-5-8.6C185.7,39,184.1,38.3,182,36.8z M103.1,41.9l-1.6-5.1
				c-2.1,1.5-3.8,2.2-6.1,1c-2.9,2.5-4.3,5.4-5,8.6c0.6-0.3,1.2-0.6,1.7-0.8C96.7,43.6,100.3,42.4,103.1,41.9z M177.2,22.4
				c-11-4.3-23-6.7-35.5-6.7c-12.5,0-24.5,2.4-35.5,6.7c-1.4,2.5-3.2,2.7-3.2,4.4c3.7,1.3,5.9,4.8,1.8,7.6l2.3,7.1
				c5,0.2,5.4,3.6,4.8,6.3c1.8,1.1,2.8,4.4,2,6.8c8.4-4,17.9-6.3,27.8-6.3c10,0,19.4,2.3,27.8,6.3c-0.8-2.4,0.3-5.8,2-6.8
				c-0.6-2.7-0.2-6.1,4.8-6.3l2.3-7.1c-4-2.8-1.9-6.3,1.8-7.6C180.5,25.1,178.6,24.9,177.2,22.4z M106.1,18.2
				c11.1-4.2,23.1-6.4,35.7-6.4c12.6,0,24.6,2.3,35.7,6.4c1.3-1.4,3.8-1.8,5.5-1c0.3-2.2,6.4-1.8,7.6-0.1c0.6-0.9,4.9-1.4,7.9,5.7
				c1.1-0.3,2.1-0.5,3.1-0.6c0.6-0.1,2.8-0.2,3.4-0.3c1.5-0.2,2.1-2.1,3.8-2.8c0.3-0.1,1.1-0.3,2.3-0.4c-0.2-0.9-0.6-2.3-0.4-2.9
				c0.5-1.8,3.5-1.9,4.9-2.4c1.6-0.5,3.5-1.1,2.5-2.7c-1.9-3,6.5-0.8,7.4,0.5c0.5,0.8-0.4,2.3-0.4,2.3s1.1-0.1,2.2,0.1
				c2.8,0.4,4.9,1.3,3.8-2.2c-0.7-2.3,8.8,0.8,7.3,4.9c-0.4,1.2-1.8,2.1-1.8,2.1s0.9,0.6,1.7,2c0.7,1.3,3.3-0.2,3.3-1.9
				c0-3.5,4.4,1.3,4.7,4.7c0.1,1.2-0.1,3.1-1.2,4c-0.5,0.4-2,0.6-2,0.6s0.7,1.1,0.6,3.1c-0.1,1.8,3.1,1.3,4-0.7
				c0.8-1.6,3.5,3.7,2.5,7.3c-0.3,1.1-1.8,2.6-2.7,2.9c-1,0.2-2.4-0.3-2.4,0.1c0.1,0.8,0.1,1.2,0,2.3c-0.2,2.5,2.3,2.9,4.2,1
				c1.5-1.4,2.4,8.6-1.6,9.2c-2.4,0.4-2.7-0.8-2.8-0.4c-0.1,0.4-0.1,0.8-0.6,1.7c-1.3,2.7,2.1,2.5,3.8,1.6c1.5-0.8,0.9,8.5-4.1,8.1
				c-1-0.1-1.6-1.1-2.5-1.1c-0.8,0-0.9,8.2,2.3,8.2c4.7,0-0.5,5.3-4.9,5c0.5,6.1,4.2,14.3,7.9,18.5c4,4.6,6.3,9.8,6.1,14.6
				c7,0.7,11.6-2.5,13.2-6.9c2.5-6.9-2.4-14.5-6.2-20.2c-5.2-7.8-4.3-16.6-3.1-21.9c-1.9-1.3-2.8-3.4-2.8-5.6c0-2.4,0.5-5.1,3-7.5
				c6.3-5.9,15.9-0.9,17.4,1.4c0.5,0.7,0.3,1.8-0.8,2.4c-4.3,2.3-1.7,10.7-9.9,10.7c-0.5,1.6-0.7,3.3-0.8,5c-0.2,5.2,1.1,8.6,3,11.7
				c1.4,2.2,4.3,6.4,6,10.2c5,10.7,1.7,24.3-10.9,28.3c-2.1,0.7-6.6,1.3-11.3,0.4c-0.3,0.3-0.6,0.7-0.9,1c-0.4,0.4-0.9,0.8-1.4,1.3
				c-1,2.9-0.8,6.3,2.3,9.9c5.3,6.1,7.8,7.7,1.5,12.2c-12.2,8.7-13.1,15.3-14.8,17.9c2.6,0.4,5.2,0.9,7.9,1.5c1.3,0.3,4,1,3.1,4.9
				l-6.9,30.7c-1,4.5-4.4,3.4-6,3c-29.7-7.8-44,13.3-92.5,13.3c-48.5,0-62.8-21.1-92.5-13.3c-1.6,0.4-5,1.5-6-3l-6.9-30.7
				c-0.9-3.9,1.8-4.6,3.1-4.9c2.7-0.6,5.3-1.1,7.9-1.5c-1.7-2.6-2.6-9.2-14.8-17.9c-6.3-4.5-3.8-6.1,1.5-12.2c3.1-3.6,3.3-7,2.3-9.9
				c-0.5-0.4-1-0.9-1.4-1.3c-0.3-0.3-0.6-0.7-0.9-1c-4.7,0.8-9.2,0.2-11.3-0.4c-12.6-4-15.9-17.6-10.9-28.3
				c1.8-3.8,4.7-7.9,6.1-10.2c1.9-3.1,3.2-6.5,3-11.7c-0.1-1.7-0.3-3.4-0.8-5c-8.2,0-5.6-8.4-9.9-10.7c-1.1-0.6-1.3-1.6-0.8-2.4
				c1.5-2.3,11.1-7.3,17.4-1.4c2.5,2.3,3,5.1,3,7.5c0,2.3-0.9,4.4-2.8,5.6c1.1,5.4,2,14.1-3.1,21.9c-3.8,5.8-8.8,13.4-6.2,20.2
				c1.6,4.4,6.2,7.6,13.2,6.9c-0.2-4.8,2-9.9,6.1-14.6c3.7-4.2,7.3-12.4,7.9-18.5c-4.4,0.3-9.6-5-4.9-5c3.2,0,3.1-8.2,2.3-8.2
				c-0.8,0-1.5,1-2.5,1.1c-5.1,0.4-5.7-8.9-4.1-8.1c1.7,0.9,5.1,1.1,3.8-1.6C39,53.4,39,53,38.9,52.6c-0.1-0.5-0.4,0.8-2.8,0.4
				c-4-0.7-3.1-10.6-1.6-9.2c1.9,1.8,4.4,1.5,4.2-1c-0.1-1.1-0.1-1.4,0-2.3c0-0.4-1.4,0.1-2.4-0.1c-1-0.2-2.4-1.7-2.7-2.9
				c-1-3.5,1.7-8.9,2.5-7.3c0.9,1.9,4,2.4,4,0.7c-0.1-2,0.6-3.1,0.6-3.1s-1.5-0.2-2-0.6c-1.1-0.9-1.3-2.8-1.2-4
				c0.3-3.4,4.7-8.2,4.7-4.7c0,1.7,2.6,3.2,3.3,1.9c0.7-1.4,1.7-2,1.7-2s-1.4-0.9-1.8-2.1c-1.5-4.1,8-7.2,7.3-4.9
				c-1.1,3.5,1,2.6,3.8,2.2c1.1-0.2,2.2-0.1,2.2-0.1s-0.8-1.5-0.4-2.3c0.8-1.4,9.2-3.6,7.4-0.5c-1,1.6,0.9,2.2,2.5,2.7
				c1.4,0.5,4.4,0.6,4.9,2.4c0.2,0.6-0.2,2.1-0.4,2.9c1.2,0.1,2,0.3,2.3,0.4c1.7,0.7,2.3,2.6,3.8,2.8c0.5,0.1,2.7,0.2,3.4,0.3
				c1,0.1,2,0.3,3.1,0.6c3-7.1,7.3-6.6,7.9-5.7c1.2-1.8,7.3-2.2,7.6,0.1C102.3,16.5,104.8,16.9,106.1,18.2z M158.9,35.6l4.5,1.2
				l1.2-4.3c0.3-1,0.6-2.1,1-3.1l-0.1,0c-0.9,1-1.6,1.8-2.5,2.7L158.9,35.6L158.9,35.6z M165.1,44.8l-3.7-1l1.1-4.3l-8.2-2.2
				l0.7-2.5l9.9-8.7l4.8,1.3l-2.8,10.2l2.2,0.6l-0.8,2.8l-2.2-0.6L165.1,44.8z M145.5,38.7c2,0.1,3.1-2.1,3.4-6.2
				c0.2-4.1-0.7-6.4-2.7-6.5c-1.8-0.1-3.1,2-3.3,6.1C142.6,36.4,143.7,38.6,145.5,38.7z M145.3,41.6c-4.6-0.2-6.7-4.3-6.4-9.6
				c0.3-5.4,2.9-9.2,7.5-9c4.8,0.2,6.7,4.4,6.4,9.5C152.5,38.1,150.1,41.8,145.3,41.6z M128.6,26.9c-1.7,0.2-2.7,1.8-2.4,3.7
				c0.2,1.6,1.4,2.8,3.3,2.6c1.4-0.2,2.2-0.9,2.6-1.7c0.1-0.2,0.1-0.5,0.1-0.9C131.9,28.5,130.8,26.5,128.6,26.9z M125.7,43l-0.4-3
				c0.5,0,1-0.1,1.9-0.3c1.4-0.3,2.7-0.9,3.7-1.8c1.1-1,1.8-2.4,1.9-3.9l-0.1,0c-0.8,1.1-2,1.8-3.7,2c-3.2,0.4-6.1-1.4-6.6-4.8
				c-0.5-3.5,2-6.8,6-7.4c4.6-0.6,7.4,2.5,8,6.7c0.5,3.7-0.3,6.6-2,8.6c-1.5,1.8-3.8,3-6.6,3.4C127,42.9,126.2,43,125.7,43z
				 M119.3,44.8L115,31l-0.1,0l-2.8,2.6l-1.5-2.6l3.9-3.5l3.1-0.9l5.3,17.2L119.3,44.8z M70.7,24.6c-0.1,0-0.9,0.7-1.3,1.5
				c0.5-0.1,1.7-0.5,2.8-0.9C71.8,25,71.3,24.6,70.7,24.6z M74.8,26c0,0-5.6,2.2-6.6,1.3c-1.2-1.1,1.3-4,2.3-4
				C73.1,23.2,74.8,26,74.8,26z M208.7,26c0,0,1.7-2.7,4.2-2.7c1,0,3.5,2.9,2.3,4C214.2,28.1,208.7,26,208.7,26z M212.7,24.6
				c-0.6,0-1.1,0.3-1.6,0.7c1.1,0.4,2.3,0.7,2.8,0.9C213.7,25.3,212.9,24.6,212.7,24.6z M211.3,188.9v-10.5c0-1.9-0.1-3.4-0.1-4.8
				h3.9l0.2,2.3h0.1c0.6-1,2.3-2.6,5-2.6c3,0,5.8,1.9,5.8,6.8v8.9h-4.5v-8.3c0-2.2-0.8-3.7-2.9-3.7c-1.6,0-2.5,1.1-2.9,2.1
				c-0.1,0.3-0.2,0.8-0.2,1.2v8.8H211.3z M57.4,189.2l-0.7-21.1l4.5-0.2l0.6,17.3l9.2-0.3l0.1,3.7L57.4,189.2z M88,185.9l-10.3-2.4
				c-0.4,2.2,1.5,3.7,3.9,4.3c1.8,0.4,3.1,0.5,4.6,0.3l-0.1,3.1c-1.7,0.3-3.6,0.2-5.9-0.3c-5.2-1.2-7.5-4.9-6.4-9.5
				c0.9-3.7,4.3-7.4,9.6-6.2c5.2,1.2,6,5.7,5.2,9C88.4,185,88.2,185.6,88,185.9z M78.4,180.5l6.4,1.5c0.3-1,0.2-3.3-2.3-3.9
				C80.2,177.5,78.8,179.2,78.4,180.5z M92.8,178.1l4.6,1.7l-0.3,7.8c0,1.4-0.2,2.6-0.3,3.8l0.1,0c0.7-1,1.4-2,2.2-3.1l4.8-6.2
				l4.5,1.6l-11,12.3l-4.3-1.5L92.8,178.1z M122.4,195.8l-10.4-2c-0.3,2.2,1.6,3.7,4,4.2c1.8,0.3,3.2,0.4,4.6,0.2l0,3.1
				c-1.7,0.3-3.6,0.3-5.9-0.1c-5.2-1-7.7-4.6-6.8-9.3c0.7-3.7,4-7.6,9.4-6.5c5.2,1,6.2,5.5,5.5,8.8
				C122.8,194.8,122.6,195.5,122.4,195.8z M112.5,190.7l6.5,1.3c0.2-1.1,0.1-3.4-2.4-3.8C114.3,187.7,113,189.4,112.5,190.7z
				 M126.8,202.9l0.9-10.2c0.2-2.3,0.3-3.7,0.3-5.1l3.9,0.3l-0.1,3l0.1,0c1-2.2,3-3.1,4.7-3c0.4,0,0.6,0.1,1,0.2l-0.4,4.2
				c-0.4-0.1-0.8-0.2-1.3-0.3c-2-0.2-3.3,0.8-3.7,2.4c-0.1,0.3-0.1,0.7-0.2,1l-0.7,7.8L126.8,202.9z M145.6,181l0.5,13.6l0.1,0
				c0.4-0.6,0.8-1.3,1.2-1.8l3.5-4.9l5.5-0.2l-5.7,6.4l7.2,8.9l-5.6,0.2l-4.6-6.3l-1.3,1.6l0.2,4.9l-4.5,0.2l-0.8-22.3L145.6,181z
				 M173.8,184.3l2,10.3c0.4,1.9,0.7,3.5,1,4.7L173,200l-0.7-2.3l-0.1,0c-0.4,1.1-1.6,3.1-4.5,3.6c-2.9,0.6-5.9-0.7-6.8-5.6
				l-1.7-8.7l4.4-0.9l1.6,8c0.5,2.4,1.6,3.7,3.5,3.3c1.5-0.3,2.2-1.5,2.4-2.5c0.1-0.3,0.1-0.7,0-1.1l-1.7-8.9L173.8,184.3z
				 M180.8,196.7l-0.1-3.3c1,0.3,3,0.4,4.4,0c1.6-0.5,2.1-1.2,1.8-2c-0.3-0.9-0.9-1.1-2.9-1.2c-3.4,0-5.1-1.3-5.6-3.1
				c-0.8-2.7,1-5.4,4.7-6.5c1.8-0.5,3.5-0.5,4.5-0.3l0.1,3.2c-0.8-0.2-2.3-0.3-3.6,0.1c-1.2,0.4-1.8,1.1-1.6,1.9
				c0.2,0.8,1.1,1,3.2,1.1c3.1,0.1,4.8,1.1,5.5,3.3c0.8,2.7-0.8,5.3-5.1,6.6C184,196.9,182.1,197,180.8,196.7z M207.7,183.4l-10.4,2
				c0.6,2.2,2.9,2.8,5.3,2.3c1.8-0.3,3.1-0.8,4.3-1.5l1.2,2.8c-1.4,0.9-3.2,1.7-5.5,2.1c-5.2,1-8.9-1.4-9.8-6.1
				c-0.7-3.7,0.9-8.5,6.3-9.6c5.2-1,7.8,2.8,8.4,6.1C207.7,182.3,207.7,183,207.7,183.4z M196.7,182.3l6.5-1.3
				c-0.2-1.1-1.2-3.2-3.7-2.7C197.1,178.9,196.6,181,196.7,182.3z M137.9,67.4h7.5c0.8,0,1.5-0.7,1.5-1.5c0-0.8-0.7-1.5-1.5-1.5
				h-7.5V67.4z M137.9,74.6h7.7c0.9,0,1.7-0.8,1.7-1.7c0-0.9-0.8-1.7-1.7-1.7h-7.7V74.6z M149.9,69.1c1,1,1.6,2.4,1.6,3.9
				c0,3-2.4,5.4-5.4,5.4h-12.5V60.6h12.3c2.9,0,5.2,2.3,5.2,5.2C151.1,67.1,150.6,68.2,149.9,69.1z M152.8,99.7h-4.6l-1.4-3h-10
				l-1.4,3h-4.6l9-17.8h4.2L152.8,99.7z M141.7,86.4l-3.2,6.5h6.3L141.7,86.4z M147.8,103.5h5.1l-9.1,11.6v6.2h-4.3v-6.2l-9.1-11.6
				h5.1l6.1,8.1L147.8,103.5z M171.7,103.5v3.8h-12v3h11.5v3.8h-11.5v3.4h12v3.8h-16.2v-17.8H171.7z M185.2,114.6H182v6.8h-4.3
				v-17.8h10.9c3.1,0,5.5,2.5,5.5,5.5c0,2.5-1.7,4.6-4,5.3l5.3,7h-5.1L185.2,114.6z M188.2,107.3H182v3.4h6.2c0.9,0,1.7-0.8,1.7-1.7
				C189.9,108.1,189.1,107.4,188.2,107.3z M132.5,121.4h-4.6l-1.4-3h-10l-1.4,3h-4.6l9-17.8h4.2L132.5,121.4z M121.4,108.1l-3.2,6.5
				h6.3L121.4,108.1z M94.3,110.3h7.5c0.8,0,1.5-0.7,1.5-1.5c0-0.8-0.7-1.5-1.5-1.5h-7.5V110.3z M94.3,117.6h7.7
				c0.9,0,1.7-0.8,1.7-1.7c0-0.9-0.8-1.7-1.7-1.7h-7.7V117.6z M106.3,112.1c1,1,1.6,2.4,1.6,3.9c0,3-2.4,5.4-5.4,5.4H90v-17.9h12.3
				c2.9,0,5.2,2.3,5.2,5.2C107.5,110,107.1,111.2,106.3,112.1z M149.8,125.2v3.8h-12v3l11.5,0v3.8h-11.5v3.4h12v3.8h-16.2v-17.8
				H149.8z M146.8,152.8c0-0.9-0.8-1.7-1.7-1.7h-7.3v3.4h7.3C146.1,154.5,146.8,153.8,146.8,152.8z M133.6,165.1v-17.8h12
				c3.1,0,5.5,2.5,5.5,5.5c0,2.3-1.4,4.3-3.5,5.1l5.4,7.2h-5.1l-5.1-6.8h-4.9v6.8H133.6z"/>
		</defs>
		<clipPath id="SVGID_10_">
			<use xlink:href="#SVGID_41_"  style="overflow:visible;"/>
		</clipPath>
		<g id="XMLID_66_" class="st9">
			<defs>
				<rect id="SVGID_43_" x="-302.1" y="-40" width="1666.1" height="16750"/>
			</defs>
			<clipPath id="SVGID_11_">
				<use xlink:href="#SVGID_43_"  style="overflow:visible;"/>
			</clipPath>
			<rect id="XMLID_67_" x="-13" y="-13" class="st10" width="309.5" height="248"/>
		</g>
	</g>
</g>
</svg>
