<svg width="240" height="236" viewBox="0 0 240 236" fill="none" xmlns="http://www.w3.org/2000/svg">
<path d="M34.0505 50.3195L29.0352 55.7129L37.4556 63.5432L42.471 58.1498L34.0505 50.3195Z" fill="#263238"/>
<path d="M39.2757 49.7916L28.9438 60.8992L19.8713 52.4619C22.5286 47.6795 25.926 43.9141 30.2031 41.3543L39.2757 49.7916Z" fill="#455A64"/>
<path d="M30.6638 59.047C30.4949 59.2284 28.2373 57.4103 25.6129 54.9997C22.9885 52.5891 20.9961 50.4872 21.156 50.3039C21.3249 50.1225 23.5825 51.9406 26.2069 54.3512C28.8313 56.7618 30.8237 58.8637 30.6638 59.047Z" fill="#263238"/>
<path d="M32.6511 56.9258C32.4841 57.0982 30.2326 55.1591 27.6252 52.6204C25.0106 50.0709 23.0131 47.9021 23.124 47.7745C23.3239 47.5337 25.6279 49.446 28.2335 51.9937C30.8481 54.5433 32.8182 56.7534 32.6493 56.9348L32.6511 56.9258Z" fill="#263238"/>
<path d="M35.2691 54.1083C35.1021 54.2807 32.8363 52.3199 30.211 49.7306C27.5768 47.1394 25.5797 44.9237 25.7123 44.7818C25.9066 44.568 28.2032 46.5164 30.8284 49.1057C33.4536 51.695 35.4452 53.9378 35.2691 54.1083Z" fill="#263238"/>
<path d="M37.6527 51.4751C37.4838 51.6566 35.2318 49.8114 32.6238 47.3666C30.0159 44.9218 28.0291 42.7928 28.1961 42.6204C28.3632 42.448 30.6081 44.2823 33.225 46.729C35.833 49.1738 37.8108 51.3009 37.6527 51.4751Z" fill="#263238"/>
<path d="M133.183 45.9704L127.534 41.2441L120.155 50.0629L125.804 54.7891L133.183 45.9704Z" fill="#263238"/>
<path d="M134.005 51.1454L122.37 41.41L130.322 31.9087C135.233 34.3104 139.18 37.5101 141.957 41.6441L134.005 51.1454Z" fill="#455A64"/>
<path d="M124.317 43.0343C124.132 42.8834 125.82 40.524 128.096 37.7779C130.372 35.0318 132.364 32.9323 132.55 33.0832C132.735 33.2341 131.046 35.5935 128.77 38.3396C126.494 41.0857 124.502 43.1852 124.317 43.0343Z" fill="#263238"/>
<path d="M126.535 44.8906C126.352 44.7307 128.169 42.3883 130.576 39.6411C132.984 36.8939 135.043 34.7893 135.182 34.893C135.433 35.0858 133.643 37.4808 131.238 40.2189C128.83 42.9661 126.718 45.0506 126.535 44.8906Z" fill="#263238"/>
<path d="M129.485 47.3693C129.301 47.2094 131.151 44.8455 133.589 42.0859C136.039 39.319 138.145 37.2147 138.299 37.3311C138.526 37.5094 136.698 39.9059 134.25 42.6637C131.803 45.4215 129.668 47.5293 129.487 47.3603L129.485 47.3693Z" fill="#263238"/>
<path d="M132.236 49.6093C132.052 49.4494 133.766 47.1046 136.076 44.3749C138.377 41.6434 140.406 39.5513 140.589 39.7112C140.772 39.8711 139.06 42.2069 136.749 44.9456C134.447 47.6772 132.419 49.7693 132.236 49.6093Z" fill="#263238"/>
<path d="M83.6839 25.9101L75.0195 26.8789L76.5315 40.4015L85.1959 39.4327L83.6839 25.9101Z" fill="#263238"/>
<path d="M88.7837 29.4456L70.9366 31.4404L69.3027 16.8635C75.3749 14.6259 81.3413 13.8612 87.1498 14.8687L88.7837 29.4456Z" fill="#022B50" fill-opacity="0.5"/>
<path d="M87.3722 14.9023C87.5194 15.0548 83.8796 17.6236 78.5699 18.2132C73.258 18.8588 69.1254 17.1999 69.2384 17.0164C69.2941 16.7458 73.3858 17.964 78.4682 17.337C83.5647 16.7786 87.2563 14.6435 87.3722 14.9023Z" fill="#263238"/>
<path d="M76.8298 30.7414C76.5895 30.7671 76.0796 27.9928 75.6908 24.5384C75.3021 21.0841 75.186 18.2687 75.4263 18.2429C75.6666 18.2172 76.1765 20.9915 76.5652 24.4458C76.954 27.9002 77.0701 30.7156 76.8298 30.7414Z" fill="#263238"/>
<path d="M80.223 30.4436C79.9827 30.4693 79.4746 27.686 79.0806 24.2118C78.6937 20.7484 78.5723 17.9131 78.8126 17.8874C79.0529 17.8616 79.5609 20.645 79.955 24.1192C80.3419 27.5825 80.4632 30.4179 80.223 30.4436Z" fill="#263238"/>
<path d="M83.6253 30.0081C83.385 30.0338 82.8769 27.2505 82.4829 23.7762C82.096 20.3129 81.9746 17.4776 82.2149 17.4518C82.4552 17.4261 82.9632 20.2094 83.3573 23.6836C83.7442 27.147 83.8656 29.9823 83.6253 30.0081Z" fill="#263238"/>
<path d="M86.4432 29.6943C86.203 29.72 85.6673 26.7054 85.2459 22.953C84.8245 19.2005 84.6827 16.1448 84.923 16.1191C85.1633 16.0933 85.6989 19.1079 86.1203 22.8604C86.5417 26.6128 86.6835 29.6685 86.4432 29.6943Z" fill="#263238"/>
<path d="M73.6073 31.0361C73.367 31.0618 72.8314 28.0472 72.41 24.2948C71.9886 20.5423 71.8468 17.4866 72.087 17.4609C72.3273 17.4351 72.863 20.4497 73.2843 24.2021C73.7076 27.9456 73.8476 31.0103 73.6073 31.0361Z" fill="#263238"/>
<path d="M141.568 130.3C158.891 99.843 148.244 61.1093 117.787 43.7861C87.3297 26.4628 48.596 37.11 31.2727 67.5672C13.9495 98.0244 24.5967 136.758 55.0539 154.081C85.5111 171.405 124.245 160.757 141.568 130.3Z" fill="#022B50" fill-opacity="0.5"/>
<path d="M138.03 111.251C145.124 82.693 127.724 53.7919 99.1665 46.6981C70.6089 39.6043 41.7077 57.0042 34.614 85.5618C27.5202 114.119 44.9201 143.021 73.4777 150.114C102.035 157.208 130.936 139.808 138.03 111.251Z" fill="#FAFAFA"/>
<path d="M139.288 92.4929C139.288 92.4929 139.215 92.2054 139.105 91.6469C138.993 91.0504 138.844 90.2208 138.649 89.1562C138.557 88.6013 138.446 87.9958 138.331 87.3235C138.187 86.6546 137.958 85.9401 137.744 85.1534C137.314 83.5892 136.861 81.7666 136.022 79.8172C134.632 75.8371 132.17 71.2226 128.576 66.4411C124.959 61.6829 119.983 56.8612 113.5 53.0079C107.047 49.1981 99.1022 46.2376 90.2614 45.6682C88.0553 45.6089 85.8048 45.3995 83.5266 45.645C82.3904 45.7308 81.231 45.7459 80.0818 45.8948C78.9342 46.0816 77.7848 46.2774 76.6281 46.4623C76.0515 46.5693 75.4572 46.6255 74.8822 46.7704L73.1606 47.2338C72.0122 47.5615 70.8389 47.8275 69.6902 48.2021C67.439 49.0924 65.0876 49.8304 62.9105 51.046C60.6424 52.0644 58.5562 53.4773 56.3981 54.8285C55.3558 55.554 54.369 56.3754 53.3445 57.1515C52.2966 57.9041 51.3617 58.7926 50.416 59.6883C48.4474 61.3981 46.7874 63.4346 45.0249 65.4218C43.4727 67.5744 41.8321 69.6995 40.5602 72.0885C37.9213 76.781 35.7295 81.9039 34.6732 87.4016C33.5485 92.8663 33.2584 98.5687 33.8134 104.276C34.5219 109.967 36.0693 115.465 38.3701 120.545C40.6148 125.669 43.8866 130.187 47.4918 134.181C49.2607 136.228 51.333 137.942 53.322 139.696C55.4747 141.248 57.5476 142.868 59.8519 144.094C60.964 144.765 62.078 145.427 63.2633 145.924C64.4322 146.456 65.5719 147.039 66.7519 147.517C69.1541 148.359 71.5035 149.275 73.9402 149.767C76.3341 150.466 78.7832 150.67 81.179 151.041C82.3863 151.157 83.5888 151.161 84.7802 151.218L86.5602 151.293C87.1506 151.301 87.7378 151.234 88.3247 151.214C89.4951 151.145 90.6656 151.076 91.827 151.004C92.9778 150.893 94.1076 150.656 95.2407 150.494C97.5136 150.229 99.668 149.535 101.802 148.987C110.308 146.48 117.392 141.837 122.848 136.7C128.314 131.518 132.113 125.711 134.586 120.27C137.034 114.814 138.409 109.777 138.886 105.589C139.277 103.507 139.305 101.633 139.387 100.005C139.422 99.1943 139.482 98.4453 139.482 97.7592C139.445 97.0746 139.421 96.4588 139.386 95.8971C139.336 94.8152 139.303 93.9718 139.278 93.365C139.254 92.7961 139.268 92.4982 139.268 92.4982C139.268 92.4982 139.312 92.7892 139.364 93.3546C139.41 93.9561 139.481 94.798 139.558 95.8854C139.602 96.449 139.643 97.0685 139.69 97.7549C139.708 98.4448 139.657 99.1956 139.64 100.01C139.594 101.646 139.582 103.532 139.216 105.628C138.788 109.855 137.449 114.946 135.024 120.473C132.566 125.973 128.776 131.876 123.274 137.145C117.781 142.369 110.62 147.108 102.005 149.687C99.8391 150.256 97.663 150.965 95.3593 151.243C94.2154 151.411 93.0656 151.654 91.9039 151.772C90.7316 151.851 89.5432 151.916 88.3529 151.991C87.7551 152.018 87.157 152.092 86.5576 152.082L84.7487 152.01C83.5393 151.949 82.3169 151.952 81.0897 151.84C78.665 151.473 76.169 151.269 73.7389 150.562C71.2553 150.07 68.8698 149.146 66.4316 148.297C65.2335 147.815 64.0758 147.229 62.8798 146.692C61.6675 146.188 60.5464 145.516 59.4072 144.839C57.0686 143.597 54.9634 141.951 52.7675 140.38C50.7461 138.601 48.6415 136.862 46.842 134.781C43.165 130.724 39.843 126.13 37.5572 120.932C35.2171 115.769 33.6432 110.172 32.9153 104.392C32.3428 98.587 32.6425 92.7927 33.7948 87.2396C34.8768 81.6626 37.107 76.4442 39.7969 71.687C41.0961 69.2566 42.7693 67.1101 44.3469 64.925C46.135 62.9055 47.8294 60.8385 49.8306 59.1073C50.7891 58.1954 51.7367 57.2906 52.8044 56.5328C53.8488 55.7514 54.8484 54.9138 55.9106 54.183C58.0994 52.8193 60.2272 51.3867 62.5351 50.3578C64.752 49.1315 67.1324 48.3901 69.4234 47.4892C70.5919 47.1093 71.7851 46.8379 72.9516 46.514L74.702 46.0471C75.286 45.9041 75.8823 45.8388 76.4679 45.7338C77.6444 45.5435 78.821 45.3533 79.9776 45.1684C81.1448 45.0232 82.3131 45.0099 83.4692 44.9188C85.7836 44.6808 88.0611 44.8957 90.3033 44.9624C99.2685 45.5669 107.299 48.6109 113.814 52.4896C120.346 56.4191 125.351 61.3312 128.964 66.1544C132.554 71.0009 134.985 75.6748 136.337 79.7034C137.155 81.6671 137.583 83.513 137.991 85.0916C138.185 85.8836 138.404 86.6052 138.537 87.2813C138.642 87.9608 138.73 88.5806 138.814 89.1336C138.968 90.2088 139.088 91.0419 139.181 91.6437C139.261 92.2147 139.277 92.5001 139.277 92.5001L139.288 92.4929Z" fill="#263238"/>
<path d="M131.464 92.5254C126.638 93.1394 122.685 93.3502 122.636 92.9925C122.578 92.6329 126.422 91.6757 131.215 90.8575C135.999 90.0375 139.952 89.8266 140.043 90.3905C140.125 90.9525 136.29 91.9114 131.464 92.5254Z" fill="#263238"/>
<path d="M122.556 125.959C118.7 123.003 115.735 120.372 115.956 120.079C116.167 119.784 119.575 121.811 123.56 124.596C127.546 127.38 130.501 130.009 130.161 130.475C129.821 130.941 126.422 128.916 122.565 125.96L122.556 125.959Z" fill="#263238"/>
<path d="M92.7114 143.468C92.0396 138.649 91.789 134.706 92.1486 134.649C92.5064 134.6 93.507 138.415 94.374 143.199C95.2518 147.976 95.4987 151.937 94.9349 152.028C94.3711 152.119 93.3742 148.285 92.7023 143.466L92.7114 143.468Z" fill="#263238"/>
<path d="M59.1896 134.931C62.1056 131.038 64.7024 128.057 64.9991 128.259C65.2941 128.47 63.3105 131.897 60.5672 135.91C57.8329 139.924 55.2271 142.903 54.7685 142.574C54.3009 142.243 56.2845 138.816 59.2005 134.924L59.1896 134.931Z" fill="#263238"/>
<path d="M41.3419 105.288C46.1522 104.568 50.0845 104.277 50.1529 104.63C50.2214 104.982 46.3969 106.028 41.6287 106.954C36.8606 107.881 32.9084 108.177 32.8087 107.611C32.7089 107.045 36.5406 106.011 41.3419 105.288Z" fill="#263238"/>
<path d="M49.509 71.6646C53.4308 74.5302 56.4461 77.0964 56.2441 77.3932C56.033 77.6881 52.5899 75.7388 48.548 73.0458C44.506 70.3529 41.4907 67.7867 41.8219 67.3191C42.1531 66.8515 45.5962 68.8008 49.518 71.6664L49.509 71.6646Z" fill="#263238"/>
<path d="M78.958 53.5019C79.7293 58.2945 80.0629 62.245 79.7123 62.3044C79.3598 62.3729 78.2743 58.559 77.2989 53.7996C76.3234 49.0402 75.9879 45.0987 76.5464 44.988C77.1031 44.8864 78.1905 48.6913 78.9599 53.4929L78.958 53.5019Z" fill="#263238"/>
<path d="M112.672 61.2934C109.846 65.2516 107.312 68.2924 107.015 68.0903C106.719 67.8883 108.627 64.4179 111.278 60.3486C113.93 56.2793 116.464 53.2385 116.933 53.5607C117.403 53.8829 115.495 57.3533 112.67 61.3025L112.672 61.2934Z" fill="#263238"/>
<path d="M59.3725 43.4162C59.4064 43.4796 58.4557 43.9889 56.771 44.9582C55.0864 45.9274 52.6947 47.4091 49.924 49.499C44.3848 53.6228 37.4199 60.5175 32.4581 69.8736C27.4855 79.2368 25.673 88.8651 25.3528 95.7644C25.1764 99.2248 25.2834 102.039 25.4297 103.977C25.5669 105.913 25.6837 106.99 25.6168 106.995C25.5879 106.999 25.519 106.74 25.4351 106.234C25.3513 105.728 25.1948 104.981 25.0936 104.011C24.8445 102.07 24.6472 99.2381 24.7372 95.7411C24.8935 88.7705 26.6383 78.9685 31.6858 69.4702C36.7332 59.9719 43.8753 53.0385 49.5657 49.0022C52.4101 46.9651 54.8736 45.5452 56.6156 44.663C57.4722 44.2001 58.1798 43.9134 58.6469 43.6993C59.1211 43.4961 59.3672 43.3964 59.3797 43.4271L59.3725 43.4162Z" fill="white"/>
<path d="M76.5771 38.0392C76.6208 38.2832 73.8728 38.9395 70.4973 39.7674C67.1236 40.5863 64.3862 41.2824 64.3116 41.0509C64.2352 40.8284 66.8827 39.7472 70.2871 38.9158C73.6934 38.0754 76.5404 37.8061 76.5752 38.0482L76.5771 38.0392Z" fill="white"/>
<g opacity="0.4">
<path d="M47.5719 134.966C47.5719 134.966 79.8501 175.204 119.939 148.263C161.785 120.141 131.302 69.8106 131.302 69.8106C131.302 69.8106 156.935 109.771 116.705 142.192C106.687 150.263 94.9381 151.586 85.8841 151.687C62.7345 151.952 47.5719 134.966 47.5719 134.966Z" fill="black"/>
</g>
<path d="M97.9517 68.6151C99.0858 76.3495 99.7157 84.1587 99.8472 91.9688C99.8946 94.7984 99.8677 97.6692 99.1014 100.388C98.3351 103.106 96.7298 105.699 94.2628 107.09C91.7957 108.481 88.4197 108.397 86.3686 106.443L97.9428 68.6132L97.9517 68.6151Z" fill="#E0E0E0"/>
<path d="M84.7282 94.3639L100.349 59.8013L92.8242 97.6846L87.0867 100.123L84.7282 94.3639Z" fill="#022B50" fill-opacity="0.5"/>
<g opacity="0.4">
<path d="M100.357 59.8011L89.7912 94.5111L92.8322 97.6844L100.357 59.8011Z" fill="black"/>
</g>
<path d="M93.2701 99.4363C93.6554 102.862 91.19 105.935 87.7736 106.323C84.3572 106.71 81.2745 104.242 80.8873 100.826C80.5002 97.4096 82.9675 94.3269 86.3839 93.9398C89.8093 93.5545 92.883 96.0199 93.2701 99.4363Z" fill="#FAFAFA"/>
<path d="M93.2688 99.4365C93.1911 99.4487 93.1256 98.8995 92.746 98.0036C92.3717 97.1277 91.5914 95.8956 90.1101 95.0549C88.6777 94.2056 86.4658 93.9007 84.4903 94.9134C82.5188 95.8611 81.0052 98.2378 81.3106 100.773C81.5672 103.316 83.5747 105.299 85.7025 105.784C87.8553 106.33 89.9432 105.548 91.1466 104.404C92.3989 103.252 92.8886 101.877 93.0617 100.945C93.2296 99.9924 93.1749 99.436 93.2598 99.4347C93.2995 99.4241 93.4789 99.9685 93.41 100.988C93.3358 101.988 92.9065 103.526 91.5811 104.851C90.3026 106.176 87.9789 107.145 85.5121 106.572C83.0775 106.071 80.734 103.803 80.4362 100.865C80.0807 97.9347 81.8635 95.2093 84.1243 94.1801C86.4019 93.0698 88.8874 93.5062 90.4183 94.5168C92.007 95.5205 92.761 96.9258 93.0536 97.879C93.3496 98.861 93.2977 99.4331 93.2507 99.4328L93.2688 99.4365Z" fill="#263238"/>
<path d="M91.6775 99.6168C91.9612 102.166 90.1266 104.458 87.5864 104.743C85.0373 105.027 82.7455 103.192 82.46 100.652C82.1763 98.1031 84.0109 95.8113 86.551 95.5257C89.1002 95.2421 91.392 97.0766 91.6775 99.6168Z" fill="#455A64"/>
<path d="M175.949 218.878L176.666 235.775L185.758 235.571L185.078 218.637L175.949 218.878Z" fill="#DEE3E6"/>
<path d="M181.128 235.036C181.206 235.036 181.065 231.33 180.814 226.773C180.563 222.212 180.301 218.521 180.223 218.521C180.15 218.521 180.286 222.227 180.537 226.789C180.788 231.351 181.049 235.041 181.128 235.036Z" fill="#022B50"/>
<path d="M176.613 234.609L185.71 234.373L185.757 235.57L176.666 235.775L176.613 234.609Z" fill="#022B50"/>
<path d="M185.537 230.159C185.537 230.159 185.464 230.017 185.286 229.802C185.108 229.587 184.826 229.293 184.434 228.973C184.047 228.653 183.539 228.311 182.922 228.054C182.31 227.792 181.567 227.619 180.782 227.661C179.213 227.734 177.926 228.569 177.309 229.372C176.99 229.766 176.796 230.133 176.692 230.395C176.587 230.658 176.55 230.81 176.566 230.815C176.618 230.842 176.807 230.233 177.455 229.503C178.083 228.768 179.302 228.018 180.793 227.944C182.278 227.865 183.539 228.563 184.308 229.136C185.098 229.724 185.49 230.206 185.527 230.17L185.537 230.159Z" fill="#022B50"/>
<g opacity="0.3">
<path d="M185.27 223.457L185.343 225.321L176.231 225.483L176.168 224.082L185.27 223.457Z" fill="black"/>
</g>
<path opacity="0.3" d="M176.168 225.703L176.304 227.204H185.422L185.359 225.703H176.168Z" fill="black"/>
<path d="M155.003 219.658L155.808 229.921C155.808 229.921 145.723 233.973 145.691 235.884L165.538 235.249L164.937 219.207L155.008 219.658H155.003Z" fill="#DEE3E6"/>
<path d="M161.784 228.838C162.176 228.928 162.464 229.353 162.39 229.752C162.317 230.151 161.888 230.445 161.496 230.361C161.104 230.277 160.743 229.778 160.858 229.389C160.973 229.001 161.496 228.681 161.862 228.859" fill="#E0E0E0"/>
<path d="M165.531 235.248L165.484 233.973L146.233 234.975C146.233 234.975 145.616 235.39 145.59 235.994L165.531 235.248Z" fill="#022B50"/>
<path d="M155.629 229.994C155.634 230.093 156.126 230.114 156.623 230.408C157.125 230.692 157.392 231.107 157.481 231.065C157.57 231.044 157.397 230.461 156.795 230.114C156.194 229.763 155.608 229.905 155.634 229.994H155.629Z" fill="#022B50"/>
<path d="M153.563 230.96C153.547 231.055 153.976 231.207 154.327 231.606C154.688 231.994 154.792 232.44 154.886 232.435C154.981 232.446 155.022 231.868 154.578 231.38C154.138 230.887 153.563 230.871 153.563 230.965V230.96Z" fill="#022B50"/>
<path d="M152.478 233.531C152.567 233.547 152.682 233.054 152.41 232.523C152.138 231.993 151.667 231.804 151.631 231.888C151.579 231.972 151.887 232.245 152.107 232.681C152.337 233.111 152.379 233.526 152.478 233.531Z" fill="#022B50"/>
<path d="M155.699 227.62C155.747 227.71 156.186 227.552 156.74 227.568C157.295 227.568 157.734 227.736 157.781 227.652C157.834 227.579 157.4 227.232 156.746 227.227C156.092 227.216 155.647 227.547 155.699 227.62Z" fill="#022B50"/>
<path d="M155.25 225.423C155.25 225.465 155.642 225.507 156.254 225.375C156.558 225.307 156.919 225.192 157.29 225.008C157.478 224.913 157.667 224.803 157.855 224.677C157.944 224.614 158.054 224.551 158.148 224.425C158.253 224.32 158.305 224.058 158.169 223.9C158.059 223.748 157.876 223.69 157.73 223.696C157.583 223.696 157.463 223.732 157.358 223.764C157.138 223.827 156.929 223.911 156.746 224.005C156.369 224.194 156.071 224.431 155.846 224.656C155.402 225.108 155.255 225.48 155.292 225.501C155.339 225.533 155.548 225.213 156.009 224.84C156.239 224.651 156.532 224.457 156.882 224.294C157.06 224.215 157.248 224.147 157.452 224.089C157.662 224.026 157.845 224.016 157.902 224.105C157.923 224.142 157.928 224.152 157.886 224.221C157.845 224.278 157.761 224.341 157.672 224.404C157.499 224.53 157.327 224.635 157.154 224.73C156.814 224.919 156.485 225.05 156.202 225.144C155.637 225.328 155.26 225.37 155.26 225.428L155.25 225.423Z" fill="#022B50"/>
<path d="M155.386 225.558C155.423 225.574 155.601 225.212 155.611 224.577C155.611 224.262 155.564 223.879 155.428 223.48C155.36 223.28 155.266 223.076 155.146 222.881C155.02 222.687 154.863 222.43 154.487 222.398C154.288 222.398 154.131 222.561 154.078 222.698C154.016 222.834 154.01 222.955 153.99 223.07C153.963 223.307 153.979 223.538 154.016 223.747C154.099 224.173 154.288 224.519 154.487 224.771C154.9 225.275 155.313 225.375 155.318 225.343C155.35 225.291 154.999 225.118 154.68 224.629C154.523 224.388 154.377 224.068 154.324 223.695C154.298 223.511 154.293 223.312 154.319 223.112C154.34 222.897 154.413 222.724 154.497 222.74C154.596 222.734 154.774 222.887 154.863 223.055C154.973 223.233 155.062 223.412 155.135 223.59C155.276 223.947 155.344 224.293 155.371 224.587C155.423 225.175 155.334 225.548 155.386 225.558Z" fill="#022B50"/>
<g opacity="0.3">
<path d="M165.186 225.371L165.249 227.655L155.655 227.99L155.582 225.922L165.186 225.371Z" fill="black"/>
</g>
<path d="M163.231 88.121L174.891 87.9688L173.588 78.0058C173.588 78.0058 174.384 77.8326 174.441 73.5019C174.493 69.1661 174.692 61.8067 174.692 61.8067C169.691 59.6492 163.921 60.3789 159.611 63.7069L158.973 64.2003L163.236 88.1158L163.231 88.121Z" fill="#FFBE9D"/>
<path d="M160.316 69.5349C160.242 69.5034 157.349 68.6531 157.444 71.6189C157.538 74.5794 160.483 73.876 160.483 73.7921C160.483 73.7081 160.316 69.5402 160.316 69.5402V69.5349Z" fill="#FFBE9D"/>
<path d="M174.183 68.9158C174.256 68.8843 176.887 68.1704 176.793 71.1362C176.699 74.0968 173.754 73.3934 173.754 73.3094C173.754 73.2254 174.183 68.921 174.183 68.921V68.9158Z" fill="#FFBE9D"/>
<path d="M159.359 69.203C159.799 71.6859 159.715 72.9877 160.123 74.6464C160.767 77.271 162.069 79.2815 164.423 80.5938C166.777 81.9061 169.968 81.8799 171.987 80.0951C173.389 78.8563 174.388 77.46 174.598 75.5965C174.807 73.7331 175.016 70.4313 175.027 68.5573C175.053 65.1768 175.278 61.9433 175.278 61.9433L165.647 60.1953L160.165 63.4656L159.359 69.2082V69.203Z" fill="#022B50"/>
<path d="M169.291 82.0892C169.307 82.1574 168.548 82.3464 167.602 82.2362C166.655 82.1364 165.959 81.7847 165.985 81.7218C166.011 81.6483 166.723 81.8687 167.628 81.9685C168.533 82.0735 169.275 82.0105 169.286 82.0892H169.291Z" fill="#022B50"/>
<path d="M159.823 73.4232C159.54 70.8774 159.357 67.9693 158.96 65.2869C158.813 64.2791 158.452 62.8303 158.541 61.8172C158.63 60.7989 158.73 59.7543 159.174 58.8356C159.734 57.6861 160.848 56.8199 162.098 56.568C163.349 56.316 164.709 56.6782 165.671 57.5233C166.372 56.4735 167.748 55.9223 168.977 56.211C170.207 56.4945 171.206 57.5968 171.373 58.8514C172.059 58.1952 173.188 58.0745 173.999 58.5679C174.805 59.0614 175.218 60.1217 174.957 61.0351C175.647 61.1506 176.27 61.6335 176.552 62.2791C176.835 62.9248 176.772 63.7069 176.39 64.2948C175.945 64.9825 175.14 65.3657 174.648 66.0218C174.083 66.7777 174.02 67.8801 174.501 68.6989" fill="#022B50"/>
<path d="M173.201 64.2317C173.201 64.2317 173.185 64.3367 173.096 64.5099C173.002 64.6779 172.835 64.9194 172.536 65.1398C172.243 65.3551 171.809 65.5545 171.286 65.5388C170.768 65.5283 170.172 65.3026 169.743 64.8144L169.947 64.7567C169.842 65.3971 169.335 65.9797 168.66 66.2369C167.991 66.5309 167.127 66.4154 166.489 65.964C165.893 65.5598 165.485 64.9666 165.265 64.3577L165.501 64.384C164.977 65.1818 164.093 65.5703 163.319 65.586C162.529 65.607 161.875 65.2343 161.483 64.8354C161.08 64.4312 160.897 63.9955 160.819 63.7016C160.74 63.4023 160.751 63.2344 160.761 63.2344C160.782 63.2344 160.803 63.3971 160.902 63.6753C161.007 63.9535 161.201 64.3525 161.598 64.7147C161.985 65.0769 162.592 65.3971 163.309 65.3603C164.015 65.3341 164.815 64.9614 165.276 64.2475L165.417 64.027L165.506 64.2737C165.71 64.8354 166.092 65.3813 166.63 65.7435C167.216 66.1477 167.954 66.2527 168.556 66.0007C169.162 65.775 169.612 65.2658 169.706 64.7199L169.748 64.4732L169.91 64.6622C170.282 65.1031 170.815 65.3236 171.286 65.3498C171.762 65.3813 172.165 65.2186 172.453 65.0296C173.033 64.6359 173.164 64.2055 173.196 64.2317H173.201Z" fill="#455A64"/>
<path d="M173.181 63.0551C173.134 63.0656 173.191 62.5722 172.767 61.9791C172.558 61.6903 172.218 61.4016 171.753 61.2967C171.297 61.1864 170.733 61.2547 170.283 61.5801L170.047 61.7481L170.073 61.4594C170.094 61.1812 170.063 60.8925 169.974 60.609C169.77 59.9738 169.31 59.4647 168.792 59.2232C168.269 58.9765 167.714 58.987 167.29 59.092C166.417 59.3177 166.072 59.8426 166.04 59.8006C166.03 59.7901 166.092 59.6589 166.281 59.4699C166.469 59.2862 166.783 59.05 167.243 58.9083C167.693 58.7718 168.305 58.7298 168.896 58.9975C169.487 59.2547 170.005 59.8164 170.236 60.525C170.335 60.84 170.372 61.1707 170.34 61.4856L170.131 61.3649C170.659 60.9922 171.303 60.9345 171.81 61.0709C172.333 61.2074 172.705 61.5591 172.909 61.8846C173.118 62.2153 173.186 62.5302 173.202 62.7349C173.217 62.9449 173.186 63.0604 173.175 63.0604L173.181 63.0551Z" fill="#455A64"/>
<path d="M167.039 63.1406C167.003 63.1248 167.05 62.9726 167.034 62.7311C167.018 62.4897 166.929 62.1747 166.731 61.8545C166.537 61.5501 166.307 61.2351 166.176 61.0671C166.03 60.9149 165.889 61.0199 165.868 61.0041C165.852 61.0041 165.852 60.9359 165.93 60.8834C165.998 60.8309 166.166 60.8204 166.291 60.9149C166.422 61.0094 166.511 61.1249 166.626 61.2509C166.736 61.3821 166.856 61.5343 166.961 61.7075C167.181 62.0592 167.259 62.4529 167.222 62.7311C167.186 63.0093 167.071 63.1458 167.039 63.1301V63.1406Z" fill="#455A64"/>
<path d="M161.323 59.4176C161.292 59.4071 161.323 59.1866 161.501 58.8769C161.595 58.7247 161.731 58.5515 161.94 58.415C162.145 58.2785 162.437 58.1998 162.725 58.2418C163.306 58.3258 163.682 58.7142 163.892 58.9767C164.106 59.2496 164.206 59.4386 164.179 59.4596C164.148 59.4858 163.996 59.3336 163.75 59.1079C163.51 58.8822 163.154 58.5725 162.683 58.5095C162.213 58.436 161.852 58.7352 161.653 58.9872C161.449 59.2391 161.355 59.4334 161.318 59.4176H161.323Z" fill="#455A64"/>
<path d="M162.826 71.9792C162.768 72.0212 162.193 71.2234 161.806 70.0895C161.414 68.9557 161.382 67.9741 161.45 67.9688C161.529 67.9583 161.68 68.8979 162.062 70.0003C162.434 71.1026 162.894 71.9373 162.826 71.9792Z" fill="#455A64"/>
<path d="M164.119 72.6931C164.051 72.7246 163.7 72.1367 163.402 71.3493C163.104 70.5619 162.978 69.8848 163.052 69.8638C163.125 69.8428 163.36 70.4779 163.653 71.2548C163.946 72.0317 164.182 72.6616 164.114 72.6984L164.119 72.6931Z" fill="#455A64"/>
<path d="M172.23 72.8927C172.293 72.877 172.429 74.1053 171.895 75.4963C171.377 76.8926 170.467 77.722 170.425 77.6695C170.363 77.617 171.147 76.7352 171.639 75.4019C172.152 74.0738 172.141 72.8927 172.225 72.8927H172.23Z" fill="#455A64"/>
<path d="M173.528 70.7312C173.586 70.6997 173.962 71.7548 173.716 73.0776C173.481 74.4004 172.759 75.256 172.717 75.2087C172.644 75.1668 173.235 74.2849 173.45 73.0303C173.685 71.781 173.45 70.7469 173.528 70.7312Z" fill="#455A64"/>
<path d="M170.039 154.42L172.979 182.866L175.092 225.704H186.355L186.642 140.651L185.146 134.693L154.947 137.108L147.723 184.677L153.514 226.544H165.875L162.977 186.734L170.039 154.42Z" fill="#022B50"/>
<path d="M170.039 154.419C170.091 154.476 169.108 155.448 167.847 156.587C166.586 157.726 165.519 158.602 165.467 158.545C165.415 158.487 166.398 157.516 167.659 156.377C168.919 155.238 169.987 154.361 170.039 154.419Z" fill="#455A64"/>
<path d="M170.008 153.849C169.929 153.843 169.997 152.211 170.065 150.195C170.144 148.179 170.201 146.547 170.275 146.547C170.353 146.547 170.421 148.185 170.343 150.206C170.269 152.227 170.081 153.854 170.003 153.849H170.008Z" fill="#455A64"/>
<path d="M173.733 143.234C173.733 143.234 173.791 143.223 173.916 143.213C174.063 143.202 174.251 143.192 174.471 143.181C174.999 143.155 175.716 143.118 176.61 143.076C178.504 142.997 181.135 142.887 184.248 142.756H184.379V142.882C184.379 145.275 184.389 147.979 184.394 150.84V150.992V151.086L184.305 151.123C182.574 151.816 180.905 152.488 179.336 153.118L179.289 153.139L179.242 153.123C177.667 152.577 176.197 152.063 174.847 151.59L174.779 151.564L174.769 151.496C174.45 149.013 174.178 146.945 173.989 145.459C173.906 144.766 173.838 144.21 173.785 143.8C173.744 143.423 173.723 143.223 173.733 143.234C173.733 143.234 173.749 143.291 173.77 143.396C173.791 143.517 173.817 143.669 173.843 143.842C173.911 144.262 173.995 144.819 174.11 145.522C174.329 146.981 174.633 149.018 175.004 151.464L174.926 151.37C176.275 151.832 177.756 152.33 179.33 152.871H179.236C180.806 152.236 182.469 151.564 184.201 150.866L184.112 150.997V150.845C184.112 147.984 184.122 145.281 184.127 142.887L184.258 143.013C181.182 143.092 178.577 143.155 176.704 143.202C175.799 143.218 175.067 143.234 174.534 143.239C174.298 143.239 174.105 143.239 173.948 143.239C173.812 143.239 173.744 143.239 173.738 143.234H173.733Z" fill="#455A64"/>
<path d="M157.469 143.37C157.469 143.37 157.521 143.36 157.631 143.355C157.767 143.349 157.929 143.344 158.133 143.334C158.609 143.318 159.258 143.297 160.064 143.276C161.779 143.234 164.175 143.182 167.031 143.113H167.162V143.239C167.089 145.601 167 148.321 166.906 151.223V151.297L166.843 151.339C166.587 151.507 166.315 151.685 166.037 151.869C164.62 152.793 163.249 153.69 161.952 154.541L161.879 154.588L161.805 154.546C160.147 153.533 158.599 152.588 157.202 151.733L157.145 151.696V151.628C157.233 149.15 157.307 147.082 157.359 145.601C157.39 144.909 157.411 144.357 157.432 143.943C157.453 143.565 157.464 143.37 157.474 143.376C157.474 143.376 157.479 143.433 157.485 143.538C157.485 143.664 157.485 143.811 157.485 143.99C157.485 144.41 157.479 144.971 157.474 145.675C157.453 147.139 157.422 149.181 157.385 151.633L157.328 151.528C158.73 152.373 160.283 153.307 161.947 154.31H161.805C163.103 153.46 164.473 152.562 165.886 151.633C166.163 151.454 166.435 151.271 166.691 151.103L166.629 151.213C166.733 148.315 166.833 145.596 166.916 143.234L167.042 143.36C164.217 143.376 161.847 143.386 160.152 143.397C159.331 143.397 158.677 143.397 158.191 143.397C157.982 143.397 157.809 143.397 157.668 143.391C157.547 143.391 157.485 143.386 157.479 143.381L157.469 143.37Z" fill="#455A64"/>
<path d="M183.18 156.257C183.18 156.293 182.595 156.278 181.653 156.209C180.711 156.141 179.419 156.01 177.991 155.826C176.563 155.642 175.276 155.432 174.35 155.259C173.424 155.086 172.854 154.955 172.859 154.913C172.865 154.876 173.445 154.939 174.376 155.06C175.402 155.196 176.647 155.359 178.023 155.543C179.398 155.716 180.643 155.879 181.669 156.01C182.6 156.131 183.18 156.215 183.175 156.257H183.18Z" fill="#455A64"/>
<path d="M182.919 187.968C182.919 187.968 182.872 188.13 182.652 188.325C182.432 188.514 182.03 188.718 181.501 188.718C180.973 188.734 180.35 188.493 179.817 188.073C179.278 187.653 178.786 187.096 178.284 186.514C177.28 185.343 176.505 184.173 176.003 183.291C175.501 182.414 175.26 181.837 175.292 181.821C175.328 181.8 175.632 182.346 176.176 183.191C176.715 184.036 177.505 185.175 178.498 186.33C178.995 186.907 179.477 187.459 179.979 187.868C180.481 188.277 181.025 188.514 181.506 188.519C181.988 188.545 182.37 188.388 182.589 188.241C182.814 188.088 182.903 187.952 182.924 187.968H182.919Z" fill="#455A64"/>
<path d="M160.669 188.964C160.669 188.964 160.648 189.111 160.517 189.326C160.386 189.542 160.135 189.83 159.738 190.072C159.345 190.308 158.807 190.486 158.195 190.481C157.583 190.476 156.923 190.261 156.332 189.888C155.14 189.127 154.496 187.988 154.093 187.211C153.696 186.408 153.507 185.893 153.534 185.878C153.57 185.857 153.827 186.35 154.266 187.116C154.711 187.867 155.359 188.943 156.479 189.652C157.033 189.998 157.64 190.203 158.2 190.224C158.76 190.245 159.267 190.098 159.644 189.904C160.413 189.5 160.627 188.938 160.669 188.969V188.964Z" fill="#455A64"/>
<path d="M161.386 184.676C161.402 184.702 161.072 184.949 160.46 185.216C159.853 185.484 158.954 185.736 157.934 185.778C156.914 185.82 155.998 185.642 155.37 185.426C154.743 185.211 154.392 184.991 154.403 184.965C154.429 184.875 155.935 185.594 157.923 185.5C159.911 185.432 161.35 184.592 161.386 184.676Z" fill="#455A64"/>
<path d="M161.158 86.0493L161.869 83.5822L174.68 83.0625L175.925 85.2619L187.564 89.3038L184.996 115.98L184.185 126.946L185.001 129.586L183.824 131.938L184.546 136.269C184.546 136.269 176.867 138.447 172.87 138.778C168.874 139.114 161.775 138.284 161.775 138.284L154.953 137.103L155.403 130.699L154.885 129.502L155.456 128.295V120.411L151.59 105.057L151.783 89.1831L161.158 86.0388V86.0493Z" fill="#DEE3E6"/>
<path d="M151.786 89.1927C151.786 89.1927 131.667 111.114 131.656 115.575C131.651 118.909 139.519 131.738 144.138 134.656L147.993 137.832L152.455 132.756L148.726 129.942C148.726 129.942 148.893 126.714 147.951 125.811C147.01 124.908 142.014 117.549 142.014 117.549C142.014 117.549 142.778 117.292 143.086 116.846C143.395 116.399 151.985 106.715 151.985 106.715L152.236 98.5311L151.791 89.1875L151.786 89.1927Z" fill="#DEE3E6"/>
<path d="M142.045 118.049C142.05 118.085 141.7 118.19 141.124 118.327C140.554 118.479 139.727 118.589 138.938 118.952C138.153 119.335 137.509 119.86 137.018 120.185C136.531 120.526 136.223 120.721 136.196 120.689C136.176 120.658 136.442 120.411 136.897 120.028C137.363 119.66 137.975 119.109 138.817 118.7C139.675 118.316 140.507 118.243 141.082 118.133C141.668 118.043 142.034 118.007 142.04 118.043L142.045 118.049Z" fill="#022B50"/>
<path d="M148.724 129.938C148.792 129.949 148.327 131.439 147.087 132.846C146.48 133.55 145.831 134.096 145.334 134.447C144.837 134.799 144.497 134.962 144.482 134.935C144.435 134.862 145.695 134.054 146.883 132.668C148.091 131.298 148.656 129.901 148.729 129.938H148.724Z" fill="#022B50"/>
<path d="M149.123 131.818C149.087 131.802 149.333 131.518 149.84 131.576C150.081 131.597 150.4 131.739 150.572 132.054C150.651 132.211 150.688 132.39 150.698 132.568C150.698 132.778 150.588 132.988 150.426 133.109C150.107 133.361 149.688 133.413 149.364 133.256C149.04 133.098 148.898 132.778 148.872 132.531C148.825 132.012 149.118 131.781 149.129 131.812C149.17 131.833 148.977 132.08 149.066 132.5C149.108 132.699 149.244 132.925 149.474 133.025C149.694 133.125 150.034 133.077 150.259 132.894C150.374 132.804 150.431 132.684 150.436 132.563C150.436 132.416 150.41 132.28 150.358 132.164C150.243 131.933 150.023 131.802 149.819 131.765C149.395 131.671 149.15 131.854 149.134 131.818H149.123Z" fill="#022B50"/>
<path d="M156.198 125.371C156.198 125.371 156.161 125.282 156.114 125.103C156.062 124.898 155.999 124.641 155.926 124.331C155.764 123.618 155.544 122.652 155.272 121.481C154.733 119.072 154.006 115.738 153.221 112.048C152.437 108.363 151.741 105.02 151.249 102.6C151.014 101.419 150.826 100.447 150.684 99.7283C150.627 99.4134 150.58 99.1561 150.543 98.9462C150.512 98.7677 150.501 98.6732 150.512 98.668C150.522 98.668 150.548 98.7572 150.595 98.9357C150.648 99.1404 150.711 99.3976 150.784 99.7073C150.946 100.421 151.166 101.382 151.438 102.558C151.976 104.967 152.704 108.3 153.488 111.991C154.273 115.675 154.969 119.019 155.46 121.439C155.696 122.62 155.884 123.591 156.025 124.31C156.083 124.625 156.13 124.883 156.167 125.093C156.198 125.271 156.208 125.366 156.198 125.371Z" fill="#022B50"/>
<path d="M181.838 127.884C181.838 127.884 181.54 127.995 180.98 128.147C180.426 128.304 179.61 128.499 178.6 128.709C176.581 129.139 173.756 129.58 170.607 129.769C167.458 129.953 164.602 129.848 162.546 129.659C161.515 129.564 160.689 129.47 160.118 129.381C159.548 129.297 159.234 129.239 159.234 129.218C159.234 129.197 159.553 129.218 160.129 129.27C160.704 129.328 161.531 129.396 162.561 129.459C164.612 129.596 167.458 129.674 170.596 129.491C173.73 129.302 176.544 128.892 178.569 128.514C179.578 128.325 180.4 128.163 180.959 128.037C181.524 127.916 181.838 127.858 181.843 127.879L181.838 127.884Z" fill="#022B50"/>
<path d="M175.464 132.908C175.464 132.908 175.296 132.987 174.977 133.076C174.663 133.166 174.198 133.281 173.627 133.412C172.482 133.67 170.881 133.963 169.102 134.168C167.319 134.373 165.697 134.452 164.52 134.457C163.934 134.457 163.458 134.457 163.129 134.436C162.799 134.42 162.621 134.404 162.621 134.383C162.621 134.341 163.348 134.32 164.515 134.263C165.681 134.205 167.298 134.095 169.071 133.895C170.844 133.691 172.44 133.428 173.591 133.223C174.742 133.013 175.453 132.872 175.464 132.914V132.908Z" fill="#022B50"/>
<path d="M179.689 100.201C179.689 100.201 179.699 100.301 179.689 100.495C179.678 100.716 179.663 100.994 179.642 101.335C179.631 101.519 179.615 101.723 179.6 101.944C179.579 102.164 179.537 102.401 179.5 102.658C179.417 103.167 179.354 103.76 179.186 104.39C179.113 104.71 179.035 105.041 178.951 105.387C178.867 105.734 178.737 106.08 178.627 106.453C178.418 107.193 178.088 107.949 177.769 108.752C177.063 110.327 176.142 112.001 174.97 113.618C173.777 115.219 172.454 116.595 171.162 117.739C170.492 118.285 169.87 118.82 169.226 119.24C168.907 119.455 168.614 119.681 168.311 119.865C168.008 120.043 167.709 120.222 167.432 120.384C166.883 120.736 166.334 120.967 165.873 121.198C165.638 121.308 165.423 121.419 165.225 121.508C165.021 121.587 164.832 121.66 164.66 121.723C164.34 121.838 164.084 121.938 163.875 122.017C163.697 122.08 163.598 122.111 163.598 122.101C163.598 122.09 163.687 122.043 163.859 121.964C164.063 121.875 164.314 121.765 164.623 121.629C164.79 121.555 164.979 121.476 165.177 121.392C165.376 121.298 165.585 121.182 165.816 121.067C166.271 120.825 166.804 120.584 167.343 120.222C167.62 120.054 167.908 119.875 168.206 119.692C168.504 119.503 168.792 119.277 169.106 119.056C169.739 118.631 170.351 118.096 171.01 117.55C172.281 116.406 173.584 115.041 174.761 113.455C175.922 111.854 176.838 110.206 177.549 108.652C177.873 107.86 178.203 107.114 178.423 106.385C178.538 106.023 178.669 105.676 178.763 105.335C178.852 104.994 178.935 104.663 179.014 104.348C179.197 103.723 179.27 103.141 179.364 102.637C179.406 102.385 179.459 102.149 179.49 101.928C179.511 101.713 179.532 101.513 179.553 101.33C179.589 100.994 179.626 100.716 179.652 100.495C179.678 100.306 179.694 100.206 179.704 100.206L179.689 100.201Z" fill="#022B50"/>
<path d="M175.833 85.5919C175.833 85.5919 175.645 85.6864 175.294 85.8071C174.939 85.9331 174.421 86.0906 173.772 86.2533C172.475 86.584 170.633 86.9042 168.583 86.9724C166.532 87.0354 164.675 86.836 163.357 86.5945C162.698 86.4738 162.169 86.353 161.809 86.248C161.448 86.1483 161.249 86.0853 161.254 86.0643C161.264 86.0171 162.07 86.206 163.388 86.4003C164.707 86.5945 166.543 86.7625 168.572 86.6995C170.602 86.6312 172.423 86.3478 173.725 86.0643C175.028 85.7861 175.823 85.5446 175.833 85.5919Z" fill="#022B50"/>
<g opacity="0.3">
<path d="M162.711 86.4223C164.244 87.6821 166.53 88.4012 168.795 88.3277C171.06 88.2542 173.257 87.3934 174.638 86.0391C170.83 86.8527 166.681 87.1047 162.711 86.4275" fill="black"/>
</g>
<g opacity="0.3">
<path d="M155.364 137.329C159.062 135.634 163.509 136.936 167.552 136.521C169.896 136.28 172.156 135.545 174.478 135.13C176.796 134.71 179.281 134.631 181.41 135.639C181.781 135.812 182.158 136.028 182.566 136.028C182.974 136.028 183.424 135.713 183.387 135.303C183.361 135.015 183.12 134.799 182.89 134.626C181.378 133.534 179.459 133.162 177.596 133.172C175.739 133.183 173.903 133.555 172.062 133.823C168.933 134.28 165.769 134.453 162.609 134.327C161.16 134.269 159.685 134.154 158.272 134.479C156.855 134.805 155.474 135.66 154.93 137.009" fill="black"/>
</g>
<path d="M187.562 89.3047C187.562 89.3047 206.085 110.249 206.075 114.711C206.064 118.044 198.694 130.9 194.383 133.834L190.784 137.025L186.652 131.97L190.136 129.141C190.136 129.141 189.989 125.913 190.873 125.01C191.752 124.107 196.429 116.721 196.429 116.721C196.429 116.721 195.717 116.464 195.435 116.023C195.152 115.582 185.621 105.934 185.621 105.934L186.097 98.9948L187.557 89.3047H187.562Z" fill="#DEE3E6"/>
<path d="M196.434 116.721C196.444 116.69 196.8 116.742 197.365 116.9C197.93 117.052 198.699 117.304 199.51 117.682C200.32 118.065 201.011 118.527 201.414 118.979C201.827 119.43 201.864 119.845 201.832 119.839C201.79 119.85 201.696 119.498 201.278 119.11C200.87 118.716 200.19 118.301 199.4 117.924C197.804 117.189 196.413 116.8 196.439 116.711L196.434 116.721Z" fill="#022B50"/>
<path d="M190.264 129.169C190.343 129.137 190.829 130.476 191.891 131.84C192.937 133.216 194.115 134.024 194.062 134.092C194.036 134.15 192.76 133.426 191.677 132.008C190.583 130.602 190.202 129.179 190.264 129.169Z" fill="#022B50"/>
<path d="M189.477 131.325C189.456 131.383 189.22 131.126 188.838 131.225C188.66 131.283 188.472 131.446 188.357 131.687C188.231 131.924 188.216 132.212 188.43 132.407C188.634 132.601 188.953 132.648 189.157 132.538C189.372 132.428 189.487 132.197 189.529 132.002C189.607 131.598 189.435 131.351 189.477 131.33C189.492 131.304 189.754 131.53 189.717 132.029C189.696 132.265 189.581 132.574 189.278 132.758C188.969 132.937 188.53 132.879 188.242 132.606C188.095 132.469 188.001 132.275 187.996 132.081C187.996 131.882 188.054 131.719 188.132 131.577C188.284 131.294 188.54 131.094 188.791 131.047C189.048 131 189.241 131.105 189.341 131.178C189.44 131.262 189.482 131.32 189.471 131.336L189.477 131.325Z" fill="#022B50"/>
<path d="M190.789 137.025C190.789 137.025 188.995 139.429 187.326 138.164C187.326 138.164 185.003 137.67 183.805 136.432C182.607 135.193 182.419 134.437 181.572 134.379C180.965 134.337 179.312 133.896 178.422 133.65C177.925 133.513 177.68 132.904 177.999 132.5C178.082 132.395 178.197 132.306 178.36 132.253C179.118 131.996 182.492 132.316 182.492 132.316L183.476 132.374L183.648 130.92L184.794 129.996C184.794 129.996 185.521 130.442 185.484 131.051C185.484 131.051 186.463 130.925 186.656 131.975L190.789 137.03V137.025Z" fill="#FFBE9D"/>
<path d="M147.992 137.828C147.992 137.828 149.912 140.227 151.712 138.952C151.712 138.952 154.212 138.448 155.504 137.204C156.796 135.96 157.005 135.198 157.916 135.141C158.821 135.078 161.431 134.71 161.478 134.736C161.525 134.763 162.19 133.256 161.373 132.999C160.557 132.742 156.932 133.078 156.932 133.078L155.876 133.141L155.698 131.687L155.405 130.705C155.405 130.705 153.689 131.22 153.72 131.828C153.72 131.828 152.669 131.708 152.46 132.758L147.997 137.834L147.992 137.828Z" fill="#FFBE9D"/>
<g opacity="0.3">
<path d="M164.606 121.439C164.633 119.623 165.988 118.09 167.478 117.056C168.969 116.022 170.675 115.298 172.024 114.085C174.687 111.697 175.498 107.901 177.292 104.804C177.575 104.316 178.155 103.775 178.616 104.101C178.94 104.332 178.908 104.815 178.83 105.203C177.35 112.736 171.627 119.282 164.371 121.738" fill="black"/>
</g>
<path d="M186.84 94.1133C186.913 94.1185 186.38 101.478 185.647 110.543C184.915 119.614 184.256 126.958 184.183 126.952C184.109 126.947 184.643 119.593 185.375 110.522C186.108 101.457 186.767 94.108 186.84 94.1185V94.1133Z" fill="#022B50"/>
<g opacity="0.3">
<path d="M187.941 108.227C188.166 107.54 188.04 106.789 187.899 106.075C187.475 103.897 186.973 101.739 186.403 99.5977C186.413 100.726 186.131 102.395 186.1 103.724C186.084 104.5 185.953 106.264 185.953 106.264L187.941 108.227Z" fill="black"/>
</g>
<g opacity="0.3">
<path d="M196.328 116.683C197.605 116.437 198.918 116.368 200.21 116.473C200.534 116.5 200.864 116.542 201.167 116.662C201.47 116.788 201.748 117.004 201.873 117.308C202.009 117.633 201.962 118.011 201.826 118.337C201.695 118.652 201.444 118.961 201.109 118.982C200.754 119.003 200.471 118.715 200.21 118.479C199.77 118.08 199.247 117.775 198.693 117.576C197.887 117.292 196.956 117.213 196.339 116.62" fill="black"/>
</g>
<path d="M202.511 116.526C202.49 116.61 201.083 116.222 199.315 116.301C197.542 116.364 196.171 116.868 196.145 116.784C196.114 116.726 197.479 116.096 199.305 116.028C201.13 115.949 202.543 116.469 202.511 116.526Z" fill="#022B50"/>
<g opacity="0.3">
<path d="M142.065 117.575C141.018 117.229 139.894 117.213 138.795 117.213C138.33 117.213 137.838 117.223 137.425 117.444C137.011 117.664 136.713 118.174 136.886 118.609C137.017 118.94 137.383 119.134 137.733 119.166C138.084 119.197 138.44 119.097 138.78 118.998C139.653 118.746 140.522 118.488 141.395 118.236C141.573 118.184 141.761 118.126 141.892 117.995C142.023 117.864 142.07 117.628 141.944 117.486" fill="black"/>
</g>
<g opacity="0.3">
<path d="M151.882 105.218C151.689 103.318 151.134 101.454 150.266 99.7589C150.172 99.5752 150.046 99.3757 149.842 99.3547C149.528 99.3285 149.382 99.7327 149.35 100.042C149.141 102.289 149.722 104.604 150.962 106.483C151.108 106.704 151.359 106.945 151.595 106.819C151.783 106.719 151.788 106.457 151.773 106.247C151.72 105.523 151.663 104.798 151.61 104.069" fill="black"/>
</g>
<path d="M165.209 86.6205C165.209 86.6205 165.162 86.4525 165.136 86.1795C165.115 85.9013 165.105 85.5181 165.141 85.0982C165.178 84.6783 165.257 84.3003 165.325 84.0326C165.398 83.7649 165.461 83.6074 165.471 83.6074C165.502 83.6179 165.319 84.2741 165.246 85.1087C165.168 85.9433 165.236 86.6205 165.204 86.6257L165.209 86.6205Z" fill="#FAFAFA"/>
<path d="M173.443 85.8768C173.411 85.8768 173.307 85.2522 173.087 84.5015C172.867 83.7509 172.616 83.163 172.643 83.1525C172.653 83.1472 172.737 83.2837 172.841 83.5199C172.946 83.7561 173.077 84.0921 173.187 84.47C173.296 84.848 173.37 85.1997 173.406 85.4569C173.443 85.7141 173.453 85.8716 173.438 85.8768H173.443Z" fill="#FAFAFA"/>
<path d="M162.519 129.695C162.519 129.695 162.498 129.548 162.466 129.265C162.435 128.955 162.388 128.546 162.33 128.026C162.21 126.924 162.043 125.381 161.838 123.48C161.42 119.638 160.818 114.336 160.107 108.488C159.396 102.636 158.705 97.3444 158.192 93.5177C157.936 91.6227 157.732 90.0795 157.58 88.9824C157.512 88.4679 157.455 88.0585 157.418 87.7488C157.382 87.4653 157.371 87.3184 157.371 87.3184C157.371 87.3184 157.397 87.4653 157.444 87.7488C157.491 88.0532 157.549 88.4627 157.627 88.9771C157.784 90.0742 158.004 91.6122 158.271 93.5072C158.804 97.3339 159.505 102.625 160.217 108.478C160.928 114.331 161.514 119.633 161.917 123.475C162.111 125.375 162.267 126.924 162.377 128.026C162.424 128.546 162.466 128.955 162.492 129.265C162.519 129.548 162.524 129.695 162.524 129.695H162.519Z" fill="#FAFAFA"/>
<path d="M164.636 134.091C164.636 134.091 164.6 134.038 164.558 133.938C164.511 133.839 164.453 133.686 164.396 133.492C164.281 133.109 164.181 132.553 164.197 131.938C164.213 131.324 164.343 130.778 164.479 130.4C164.547 130.211 164.61 130.064 164.663 129.965C164.715 129.865 164.746 129.812 164.751 129.812C164.767 129.823 164.668 130.043 164.553 130.427C164.438 130.805 164.322 131.34 164.307 131.944C164.291 132.547 164.375 133.088 164.469 133.471C164.563 133.854 164.652 134.085 164.636 134.091Z" fill="#FAFAFA"/>
<path d="M163.24 138.201C163.24 138.201 163.104 138.038 162.948 137.734C162.791 137.429 162.613 136.983 162.513 136.469C162.409 135.954 162.398 135.471 162.43 135.13C162.456 134.789 162.508 134.579 162.519 134.584C162.534 134.584 162.513 134.794 162.503 135.135C162.498 135.471 162.519 135.944 162.618 136.448C162.723 136.951 162.88 137.392 163.016 137.702C163.152 138.012 163.256 138.196 163.24 138.206V138.201Z" fill="#FAFAFA"/>
<path d="M175.518 138.09C175.518 138.09 175.439 137.823 175.335 137.382C175.23 136.941 175.089 136.337 174.911 135.67C174.738 135.004 174.566 134.405 174.44 133.975C174.315 133.544 174.236 133.271 174.252 133.271C174.257 133.271 174.289 133.334 174.336 133.45C174.383 133.565 174.446 133.739 174.514 133.954C174.66 134.379 174.843 134.977 175.016 135.644C175.188 136.311 175.324 136.92 175.408 137.366C175.45 137.586 175.481 137.77 175.497 137.891C175.513 138.017 175.523 138.085 175.513 138.085L175.518 138.09Z" fill="#FAFAFA"/>
<path d="M178.919 128.422C178.919 128.422 179.018 128.616 179.097 128.957C179.175 129.298 179.233 129.781 179.191 130.317C179.144 130.852 179.008 131.319 178.877 131.645C178.741 131.97 178.626 132.149 178.616 132.144C178.579 132.133 179.003 131.361 179.086 130.312C179.128 129.792 179.086 129.314 179.029 128.978C178.971 128.637 178.908 128.432 178.924 128.427L178.919 128.422Z" fill="#FAFAFA"/>
<path d="M176.095 112.369C176.095 112.369 176.095 112.427 176.095 112.537C176.09 112.679 176.079 112.836 176.069 113.02C176.042 113.498 176.011 114.091 175.974 114.794C175.901 116.296 175.844 118.369 175.875 120.658C175.906 122.946 176.022 125.02 176.131 126.516C176.189 127.219 176.236 127.812 176.273 128.29C176.288 128.469 176.299 128.631 176.309 128.773C176.314 128.883 176.32 128.941 176.314 128.941C176.314 128.941 176.299 128.883 176.288 128.773C176.273 128.631 176.252 128.474 176.231 128.295C176.178 127.881 176.121 127.272 176.053 126.526C175.922 125.03 175.797 122.957 175.765 120.663C175.734 118.369 175.807 116.296 175.901 114.794C175.948 114.044 175.99 113.44 176.032 113.02C176.048 112.842 176.063 112.679 176.079 112.537C176.09 112.427 176.1 112.369 176.1 112.369H176.095Z" fill="#FAFAFA"/>
<path d="M177.782 85.8027C177.814 85.8027 177.625 91.1569 177.364 97.7605C177.102 104.364 176.867 109.713 176.835 109.713C176.804 109.713 176.992 104.359 177.254 97.7552C177.515 91.1517 177.751 85.8027 177.782 85.8027Z" fill="#FAFAFA"/>
<path d="M186.7 96.4681C186.7 96.4996 178.77 96.9195 168.987 97.413C159.2 97.9064 151.27 98.2791 151.27 98.2528C151.27 98.2213 159.195 97.8014 168.982 97.308C178.764 96.8146 186.695 96.4419 186.7 96.4681Z" fill="#FAFAFA"/>
<path d="M171.894 116.117C171.894 116.117 171.836 116.133 171.721 116.159C171.574 116.185 171.412 116.217 171.219 116.254C170.785 116.332 170.152 116.437 169.372 116.553C167.808 116.784 165.637 117.052 163.231 117.22C160.824 117.387 158.638 117.429 157.058 117.419C156.268 117.414 155.63 117.398 155.185 117.382C154.992 117.372 154.824 117.367 154.678 117.361C154.563 117.356 154.5 117.351 154.5 117.346C154.5 117.346 154.563 117.34 154.678 117.34C154.824 117.34 154.992 117.34 155.185 117.34C155.682 117.34 156.31 117.34 157.058 117.34C158.638 117.335 160.819 117.277 163.226 117.109C165.627 116.941 167.798 116.689 169.362 116.474C170.105 116.369 170.722 116.28 171.214 116.212C171.402 116.185 171.569 116.159 171.716 116.138C171.831 116.122 171.894 116.117 171.894 116.122V116.117Z" fill="#FAFAFA"/>
<path d="M184.837 112C184.837 112.032 182.839 112.221 180.375 112.42C177.906 112.62 175.908 112.762 175.902 112.73C175.902 112.699 177.895 112.51 180.365 112.31C182.834 112.111 184.832 111.969 184.837 112Z" fill="#FAFAFA"/>
<path d="M185.188 129.297C185.188 129.297 183.577 129.78 180.92 130.352C178.262 130.924 174.553 131.538 170.416 131.832C166.278 132.121 162.517 132.032 159.807 131.832C157.097 131.638 155.434 131.381 155.434 131.381C155.434 131.381 155.538 131.381 155.737 131.402C155.967 131.423 156.255 131.454 156.605 131.491C157.359 131.575 158.457 131.664 159.807 131.754C162.517 131.932 166.273 132.005 170.405 131.722C174.538 131.428 178.247 130.83 180.904 130.273C182.233 130 183.305 129.754 184.043 129.565C184.388 129.481 184.67 129.412 184.89 129.36C185.084 129.313 185.188 129.297 185.188 129.297Z" fill="#FAFAFA"/>
<path d="M199.45 104.238C199.45 104.238 199.424 104.265 199.361 104.312C199.278 104.375 199.194 104.438 199.1 104.506C198.87 104.669 198.545 104.91 198.153 105.22C197.363 105.834 196.301 106.732 195.229 107.824C194.162 108.921 193.288 109.997 192.686 110.805C192.388 111.209 192.153 111.54 191.996 111.771C191.928 111.865 191.87 111.949 191.808 112.033C191.766 112.091 191.74 112.123 191.734 112.123C191.734 112.123 191.75 112.086 191.787 112.023C191.839 111.934 191.897 111.844 191.954 111.745C192.101 111.503 192.331 111.167 192.618 110.758C193.199 109.939 194.067 108.847 195.145 107.745C196.223 106.648 197.29 105.755 198.095 105.157C198.498 104.858 198.833 104.621 199.068 104.469C199.163 104.406 199.257 104.349 199.34 104.296C199.403 104.259 199.435 104.238 199.44 104.244L199.45 104.238Z" fill="#FAFAFA"/>
<path d="M200.604 116.112C200.604 116.112 200.552 116.055 200.468 115.944C200.363 115.803 200.238 115.64 200.096 115.446C199.746 114.973 199.286 114.359 198.726 113.619C197.565 112.081 195.943 109.965 194.096 107.677C192.25 105.388 190.534 103.351 189.273 101.887C188.666 101.184 188.164 100.606 187.777 100.16C187.62 99.9762 187.484 99.824 187.374 99.6875C187.28 99.5773 187.238 99.5195 187.238 99.5195C187.238 99.5195 187.296 99.572 187.39 99.6718C187.51 99.7977 187.646 99.95 187.808 100.128C188.201 100.564 188.713 101.142 189.331 101.834C190.602 103.283 192.333 105.309 194.18 107.603C196.027 109.897 197.638 112.018 198.783 113.572C199.327 114.322 199.783 114.947 200.123 115.419C200.264 115.619 200.379 115.787 200.478 115.929C200.557 116.044 200.599 116.112 200.599 116.112H200.604Z" fill="#FAFAFA"/>
<path d="M202.403 116.615C202.403 116.615 202.55 117.25 202.157 117.912C201.775 118.578 201.153 118.799 201.153 118.767C201.132 118.741 201.702 118.489 202.063 117.859C202.435 117.235 202.367 116.615 202.403 116.62V116.615Z" fill="#FAFAFA"/>
<path d="M190.376 129.801C190.376 129.801 190.397 129.754 190.444 129.67C190.512 129.56 190.58 129.444 190.664 129.313C190.889 128.956 191.166 128.521 191.491 128.011C192.197 126.919 193.185 125.418 194.31 123.775C195.43 122.137 196.471 120.668 197.234 119.613C197.59 119.124 197.893 118.71 198.145 118.369C198.239 118.248 198.322 118.138 198.396 118.033C198.453 117.959 198.485 117.917 198.49 117.922C198.49 117.922 198.469 117.97 198.411 118.048C198.338 118.153 198.26 118.269 198.176 118.395C197.935 118.741 197.637 119.161 197.292 119.655C196.512 120.778 195.508 122.227 194.394 123.833C193.301 125.45 192.317 126.914 191.553 128.048C191.219 128.552 190.931 128.977 190.695 129.329C190.606 129.455 190.533 129.57 190.46 129.675C190.402 129.754 190.376 129.796 190.371 129.791L190.376 129.801Z" fill="#FAFAFA"/>
<path d="M192.378 132.532C192.378 132.532 191.725 133.131 190.872 133.813C190.019 134.495 189.318 135.031 189.297 135.005C189.276 134.984 189.951 134.406 190.804 133.724C191.657 133.041 192.358 132.506 192.378 132.532Z" fill="#FAFAFA"/>
<path d="M199.599 128.107C199.599 128.107 199.473 128.065 199.248 127.976C199.023 127.886 198.704 127.734 198.322 127.529C197.559 127.115 196.565 126.427 195.639 125.472C194.718 124.511 194.07 123.488 193.682 122.711C193.489 122.322 193.353 121.997 193.269 121.771C193.185 121.545 193.144 121.414 193.149 121.414C193.154 121.414 193.212 121.535 193.306 121.755C193.395 121.981 193.546 122.296 193.745 122.679C194.143 123.446 194.797 124.453 195.712 125.403C196.628 126.348 197.606 127.046 198.354 127.472C198.725 127.687 199.039 127.85 199.259 127.949C199.479 128.054 199.599 128.112 199.594 128.117L199.599 128.107Z" fill="#FAFAFA"/>
<path d="M150.089 99.0515C150.089 99.0515 150.031 99.125 149.906 99.2562C149.765 99.4137 149.587 99.6027 149.367 99.8337C148.87 100.364 148.195 101.078 147.379 101.949C145.669 103.755 143.351 106.196 140.793 108.894C140.15 109.571 139.517 110.232 138.91 110.873C138.303 111.513 137.707 112.117 137.189 112.736C136.148 113.954 135.452 115.329 135.494 116.563C135.504 117.791 136.048 118.715 136.545 119.161C137.053 119.628 137.461 119.676 137.445 119.702C137.445 119.702 137.356 119.676 137.184 119.613C137.016 119.539 136.776 119.424 136.519 119.188C136.001 118.747 135.436 117.812 135.421 116.563C135.368 115.303 136.069 113.902 137.116 112.668C137.633 112.043 138.23 111.434 138.837 110.794C139.443 110.154 140.071 109.492 140.715 108.815C143.283 106.122 145.606 103.692 147.327 101.891C148.153 101.03 148.839 100.322 149.341 99.8022C149.561 99.5764 149.744 99.3875 149.89 99.2352C150.016 99.1093 150.089 99.041 150.089 99.041V99.0515Z" fill="#FAFAFA"/>
<path d="M148.813 110.432C148.813 110.432 148.787 110.395 148.75 110.322C148.698 110.222 148.645 110.117 148.588 110.001C148.452 109.718 148.243 109.319 147.981 108.826C147.453 107.839 146.673 106.505 145.695 105.109C144.711 103.713 143.723 102.527 142.975 101.697C142.598 101.283 142.289 100.952 142.075 100.726C141.986 100.632 141.902 100.548 141.829 100.464C141.772 100.401 141.745 100.369 141.751 100.369C141.751 100.369 141.787 100.395 141.845 100.448C141.929 100.527 142.012 100.605 142.106 100.695C142.331 100.91 142.65 101.235 143.032 101.645C143.796 102.464 144.8 103.645 145.789 105.046C146.773 106.448 147.547 107.792 148.054 108.789C148.311 109.288 148.504 109.697 148.635 109.986C148.687 110.106 148.734 110.211 148.781 110.316C148.813 110.39 148.828 110.432 148.823 110.437L148.813 110.432Z" fill="#FAFAFA"/>
<path d="M142.348 116.841C142.348 116.841 142.312 116.857 142.239 116.872C142.139 116.893 142.035 116.914 141.925 116.935C141.653 116.993 141.25 117.056 140.753 117.124C139.759 117.256 138.373 117.35 136.845 117.271C135.318 117.193 133.947 116.956 132.969 116.725C132.483 116.61 132.09 116.505 131.823 116.421C131.714 116.384 131.614 116.353 131.515 116.321C131.447 116.3 131.41 116.285 131.41 116.279C131.41 116.279 131.452 116.279 131.52 116.3C131.619 116.327 131.724 116.353 131.834 116.379C132.106 116.453 132.498 116.547 132.985 116.652C133.963 116.862 135.328 117.082 136.845 117.161C138.368 117.24 139.749 117.161 140.737 117.046C141.234 116.993 141.637 116.935 141.909 116.893C142.024 116.878 142.129 116.862 142.228 116.846C142.301 116.836 142.338 116.836 142.343 116.836L142.348 116.841Z" fill="#FAFAFA"/>
<path d="M145.878 123.424C145.878 123.424 145.773 123.503 145.569 123.623C145.365 123.744 145.072 123.923 144.721 124.159C144.015 124.621 143.068 125.319 142.122 126.195C141.175 127.077 140.416 127.97 139.898 128.642C139.642 128.978 139.438 129.256 139.302 129.45C139.166 129.644 139.088 129.749 139.082 129.744C139.077 129.744 139.145 129.628 139.271 129.424C139.396 129.219 139.59 128.936 139.841 128.594C140.343 127.907 141.102 127.004 142.048 126.117C143 125.235 143.958 124.542 144.68 124.096C145.041 123.87 145.339 123.697 145.548 123.592C145.757 123.482 145.878 123.424 145.878 123.429V123.424Z" fill="#FAFAFA"/>
<path d="M147.973 130.924C147.973 130.924 146.069 128.174 143.772 124.746C141.476 121.318 139.634 118.526 139.66 118.51C139.687 118.494 141.565 121.26 143.861 124.688C146.158 128.116 147.994 130.909 147.973 130.924Z" fill="#FAFAFA"/>
<path d="M149.112 136.084C149.112 136.084 148.437 135.628 147.647 135.008C146.857 134.389 146.23 133.869 146.251 133.843C146.271 133.817 146.925 134.3 147.715 134.924C148.505 135.544 149.133 136.063 149.112 136.089V136.084Z" fill="#FAFAFA"/>
</svg>
